<svg xmlns="http://www.w3.org/2000/svg" width="108" height="108" viewBox="0 0 108 108">
    <g fill="none" fill-rule="evenodd">
        <path fill="#87796F" d="M51.259 58.966V78.83c0 .692.28 1.311.725 1.765a2.47 2.47 0 0 0 1.757.734c1.37 0 2.478-1.12 2.478-2.499V58.966h-4.96z"/>
        <path fill="#3A312A" fill-rule="nonzero" d="M56.219 58.25h-4.96c-.393 0-.71.32-.71.716V78.83c0 .852.33 1.658.933 2.27a3.166 3.166 0 0 0 2.259.944c1.758 0 3.188-1.442 3.188-3.214V58.966a.712.712 0 0 0-.71-.716zm-.711 20.58c0 .984-.792 1.784-1.767 1.784-.473 0-.918-.187-1.252-.523a1.79 1.79 0 0 1-.52-1.26V59.68h3.539v19.15z"/>
        <path fill="#87796F" d="M25.183 84.776v19.87a2.487 2.487 0 0 0 2.478 2.493 2.488 2.488 0 0 0 2.48-2.494V84.776h-4.958z"/>
        <path fill="#3A312A" fill-rule="nonzero" d="M30.142 84.061h-4.959c-.393 0-.71.32-.71.715v19.87a3.199 3.199 0 0 0 3.188 3.209c1.76 0 3.191-1.44 3.191-3.209V84.777a.713.713 0 0 0-.71-.716zm-.71 20.584c0 .982-.795 1.78-1.771 1.78a1.773 1.773 0 0 1-1.767-1.779V85.491h3.537v19.153z"/>
        <path fill="#87796F" d="M77.653 84.776v19.87c0 .69.28 1.31.73 1.763.45.454 1.065.73 1.752.73a2.485 2.485 0 0 0 2.478-2.494V84.776h-4.96z"/>
        <path fill="#3A312A" fill-rule="nonzero" d="M82.613 84.061h-4.96c-.393 0-.71.32-.71.715v19.87c0 .855.332 1.66.936 2.27a3.16 3.16 0 0 0 2.256.939c1.758 0 3.188-1.44 3.188-3.209v-19.87a.713.713 0 0 0-.71-.715zm-.711 20.584c0 .982-.793 1.78-1.767 1.78-.473 0-.917-.186-1.25-.521a1.776 1.776 0 0 1-.522-1.259V85.492h3.538v19.153h.001z"/>
        <path fill="#D7E057" d="M80.69 58.965L60.062 37.147h15.386l-18.22-19.272h12.718L53.74.732l-6.184 6.54-5.011 5.301-5.013 5.302H50.25L32.03 37.147h15.387L26.789 58.965z"/>
        <path fill="#3A312A" d="M81.204 58.471L61.72 37.863h13.729a.717.717 0 0 0 .514-1.208L58.886 18.59h11.061a.717.717 0 0 0 .514-1.208L54.253.239a.729.729 0 0 0-1.03 0l-6.183 6.54c-.27.288-.26.74.025 1.012a.707.707 0 0 0 1.005-.025l5.668-5.996L68.29 17.16H57.228a.717.717 0 0 0-.514 1.209L73.79 36.432H60.063a.71.71 0 0 0-.654.434.719.719 0 0 0 .14.775l19.483 20.608H28.446L47.93 37.641a.719.719 0 0 0 .139-.775.71.71 0 0 0-.653-.434h-13.73L50.764 18.37a.717.717 0 0 0-.515-1.209H39.19l3.87-4.093a.718.718 0 0 0-.025-1.011.708.708 0 0 0-1.005.025l-5.012 5.302a.719.719 0 0 0-.139.774.71.71 0 0 0 .653.433h11.061L31.515 36.655a.719.719 0 0 0-.139.775.71.71 0 0 0 .653.433h13.73L26.275 58.47a.719.719 0 0 0-.14.775.71.71 0 0 0 .654.434h53.9a.71.71 0 0 0 .653-.434.719.719 0 0 0-.138-.775z"/>
        <path fill="#D7E057" d="M54.61 84.776L33.985 62.96H49.37L31.151 43.688H43.87L27.66 26.544l-6.103 6.454-5.026 5.317-5.078 5.373H24.17L5.95 62.959h15.386L.711 84.776z"/>
        <path fill="#3A312A" d="M55.125 84.283L35.641 63.674h13.73a.718.718 0 0 0 .514-1.209L32.807 44.402H43.87a.717.717 0 0 0 .514-1.208L28.176 26.051a.729.729 0 0 0-1.03 0l-6.102 6.455c-.27.287-.26.74.025 1.011a.708.708 0 0 0 1.004-.025l5.588-5.91 14.55 15.39h-11.06a.71.71 0 0 0-.653.434.719.719 0 0 0 .139.774l17.077 18.064h-13.73a.716.716 0 0 0-.514 1.208l19.484 20.61H2.367l19.484-20.61a.718.718 0 0 0 .14-.775.71.71 0 0 0-.654-.433H7.61L24.686 44.18a.717.717 0 0 0-.515-1.208H13.11l3.935-4.163a.718.718 0 0 0-.024-1.012.708.708 0 0 0-1.005.026l-5.079 5.371a.719.719 0 0 0-.139.775.71.71 0 0 0 .654.434h11.06L5.437 62.466a.717.717 0 0 0 .515 1.208h13.728L.196 84.283a.719.719 0 0 0-.139.775.71.71 0 0 0 .654.434h53.9a.717.717 0 0 0 .514-1.209z"/>
        <path fill="#D7E057" d="M107.084 84.776L86.458 62.96h15.386l-18.22-19.271h12.718L80.134 26.544l-5.233 5.535-4.3 4.55-6.675 7.059h12.718l-18.22 19.271h15.387L53.184 84.776z"/>
        <path fill="#3A312A" d="M107.6 84.283L88.114 63.674h13.729a.717.717 0 0 0 .514-1.209L85.281 44.402h11.061a.71.71 0 0 0 .653-.433.719.719 0 0 0-.139-.775L80.648 26.051a.728.728 0 0 0-1.028 0l-5.233 5.535a.72.72 0 0 0 .024 1.011.707.707 0 0 0 1.005-.025l4.718-4.99 14.552 15.39H83.625a.718.718 0 0 0-.515 1.209l17.077 18.063H86.458a.716.716 0 0 0-.514 1.208l19.484 20.61H54.841l19.484-20.61a.718.718 0 0 0 .139-.775.71.71 0 0 0-.653-.433H60.082L77.16 44.18a.718.718 0 0 0-.515-1.208H65.583l5.532-5.85a.718.718 0 0 0-.024-1.012.708.708 0 0 0-1.005.025l-6.674 7.06a.717.717 0 0 0 .514 1.207h11.061L57.91 62.465a.718.718 0 0 0 .514 1.21h13.73L52.67 84.282a.719.719 0 0 0-.14.775.71.71 0 0 0 .654.434h53.9a.718.718 0 0 0 .515-1.209z"/>
        <g fill="#B9BC39">
            <path d="M53.741 1.771l-2.15 2.275 12.4 13.112h4.297zM69.297 47.951l-3.354-3.547h-2.018a.714.714 0 0 1-.653-.434.725.725 0 0 1 .142-.778l.209-.218.483-.515-1.17-1.235-3.388-3.581a.725.725 0 0 1-.137-.778.71.71 0 0 1 .654-.434h-4.3a.715.715 0 0 0-.655.434.725.725 0 0 0 .137.778l4.557 4.816-.692.733a.724.724 0 0 0-.136.778c.109.263.369.434.653.434h2.013l4.524 4.782-8.569 9.064h4.301l8.564-9.064-1.165-1.235zM80.135 27.581l-2.151 2.275 12.402 13.118h4.3zM83.11 44.18a.713.713 0 0 1-.138-.773.702.702 0 0 1 .654-.433h-4.301a.706.706 0 0 0-.654.433.722.722 0 0 0 .137.773L95.89 62.247h4.296L83.11 44.18zM85.942 63.453a.719.719 0 0 1-.137-.777.708.708 0 0 1 .653-.43h-4.3a.71.71 0 0 0-.654.43.72.72 0 0 0 .142.777l19.483 20.608h4.3L85.943 63.453zM27.66 27.581l-2.15 2.275 12.4 13.118h4.302zM30.635 44.18a.715.715 0 0 1 .516-1.206h-4.3a.695.695 0 0 0-.65.433.704.704 0 0 0 .138.773l17.076 18.067h4.301L30.635 44.18zM33.472 63.453a.71.71 0 1 1 .512-1.206h-4.296a.706.706 0 0 0-.654.429.721.721 0 0 0 .137.777l19.445 20.57-.033.038h4.296l.038-.038-19.445-20.57zM72.044 34.586a2.708 2.708 0 0 1-.109-.114l-.255-.268a84.412 84.412 0 0 1-1.393-1.473c-.01-.01-.014-.018-.014-.018L56.716 18.37a.714.714 0 1 1 .512-1.212H52.93a.715.715 0 0 0-.654.434.724.724 0 0 0 .138.778L69.501 36.43h.303l.28-.295a.708.708 0 0 1 1.004-.024l1.203-1.269-.247-.257z"/>
        </g>
    </g>
</svg>
