<svg xmlns="http://www.w3.org/2000/svg" width="135" height="136" viewBox="0 0 135 136">
    <g fill="none" fill-rule="evenodd">
        <path fill="#87796F" d="M.896 58.52h13.207v7.042H.896z"/>
        <path fill="#3A312A" fill-rule="nonzero" d="M14.103 57.619H.896a.898.898 0 0 0-.896.9v7.043c0 .498.401.9.896.9h13.207a.897.897 0 0 0 .896-.9V58.52c0-.499-.401-.901-.896-.901zm-.896 7.042H1.792v-5.24h11.415v5.24z"/>
        <path fill="#87796F" d="M120.825 58.52h13.208v7.042h-13.208z"/>
        <path fill="#3A312A" fill-rule="nonzero" d="M134.033 57.619h-13.208a.898.898 0 0 0-.896.9v7.043c0 .498.401.9.896.9h13.208a.899.899 0 0 0 .896-.9V58.52c0-.499-.402-.901-.896-.901zm-.896 7.042H121.72v-5.24h11.416v5.24z"/>
        <path fill="#87796F" d="M63.958 123.996h7.013v10.845h-7.013z"/>
        <path fill="#3A312A" fill-rule="nonzero" d="M70.97 123.094h-7.012a.898.898 0 0 0-.896.9v10.846c0 .499.4.9.896.9h7.013a.898.898 0 0 0 .896-.9v-10.845c0-.498-.401-.901-.896-.901zm-.895 10.847h-5.221v-9.044h5.22v9.044z"/>
        <path fill="#D7E057" d="M21.868 53.559v21.136h14.063v44.647c0 2.571 2.072 4.655 4.629 4.655h53.808c2.557 0 4.63-2.084 4.63-4.655V74.695h14.061V53.56H21.87z"/>
        <path fill="#3A312A" d="M113.06 52.658H21.867a.899.899 0 0 0-.896.9v21.137c0 .497.402.9.896.9h13.167v14.01a.897.897 0 1 0 1.792 0v-14.91c0-.498-.402-.9-.896-.9H22.764V54.46h89.4v19.334H98.997a.898.898 0 0 0-.896.901v44.647c0 2.07-1.675 3.754-3.734 3.754H40.56c-2.06 0-3.733-1.684-3.733-3.754V99.09c0-.497-.402-.9-.896-.9a.898.898 0 0 0-.896.9v20.253c0 3.064 2.479 5.556 5.525 5.556h53.808c3.047 0 5.526-2.492 5.526-5.556V75.596h13.165a.899.899 0 0 0 .896-.9V53.558c0-.497-.401-.9-.896-.9z"/>
        <path fill="#FCE8CB" d="M75.737 15.568c-11.028-4.591-23.67.672-28.238 11.757-4.567 11.084.669 23.792 11.697 28.384 11.027 4.59 23.67-.672 28.237-11.757C92 32.867 86.764 20.159 75.737 15.568z"/>
        <path fill="#3A312A" fill-rule="nonzero" d="M67.464 13.015c-12.41 0-22.507 10.149-22.507 22.624s10.097 22.624 22.507 22.624c12.411 0 22.508-10.15 22.508-22.624 0-12.475-10.097-22.624-22.508-22.624zm0 43.446c-11.422 0-20.715-9.34-20.715-20.822s9.293-20.823 20.715-20.823c11.423 0 20.716 9.341 20.716 20.823 0 11.482-9.293 20.822-20.716 20.822z"/>
        <path fill="#8AC6DD" d="M97.051 27.439H37.878c-2.253 0-4.08 1.836-4.08 4.1 0 2.264 1.827 4.1 4.08 4.1H97.05c2.253 0 4.079-1.836 4.079-4.1 0-2.264-1.826-4.1-4.079-4.1z"/>
        <path fill="#3A312A" d="M97.051 26.538h-12.92a.898.898 0 0 0-.896.9c0 .498.401.901.896.901h12.92c1.755 0 3.183 1.436 3.183 3.2 0 1.764-1.428 3.2-3.183 3.2H37.878a3.196 3.196 0 0 1-3.184-3.2c0-1.764 1.429-3.2 3.184-3.2h37.21a.899.899 0 0 0 .896-.9c0-.499-.401-.901-.896-.901h-37.21c-2.744 0-4.976 2.243-4.976 5 0 2.759 2.232 5.002 4.976 5.002H97.05c2.743 0 4.975-2.243 4.975-5.002 0-2.757-2.232-5-4.975-5z"/>
        <path fill="#8AC6DD" d="M67.814 1.014h-.699c-14.518 0-26.288 11.831-26.288 26.425h53.274c0-14.594-11.77-26.425-26.287-26.425z"/>
        <path fill="#3A312A" d="M67.814.114h-.699c-14.99 0-27.184 12.257-27.184 27.325 0 .497.401.9.896.9h34.261a.899.899 0 0 0 .896-.9c0-.499-.401-.901-.896-.901h-33.35c.474-13.659 11.675-24.623 25.376-24.623h.699c13.701 0 24.903 10.964 25.375 24.623h-9.057a.898.898 0 0 0-.896.9c0 .498.401.901.896.901h9.97a.899.899 0 0 0 .896-.9C94.997 12.37 82.802.114 67.814.114z"/>
        <path fill="#8AC6DD" d="M67.464 64.026a3.713 3.713 0 0 0-3.704 3.723c0 2.057 1.659 3.723 3.704 3.723a3.714 3.714 0 0 0 3.705-3.723 3.714 3.714 0 0 0-3.705-3.723z"/>
        <path fill="#3A312A" fill-rule="nonzero" d="M67.464 63.125c-2.537 0-4.6 2.075-4.6 4.624 0 2.55 2.063 4.625 4.6 4.625 2.537 0 4.601-2.074 4.601-4.625 0-2.55-2.064-4.624-4.601-4.624zm0 7.448a2.82 2.82 0 0 1-2.808-2.824 2.82 2.82 0 0 1 2.808-2.823c1.55 0 2.81 1.266 2.81 2.823a2.82 2.82 0 0 1-2.81 2.824z"/>
        <path fill="#8AC6DD" d="M67.464 79.705c-2.047 0-3.704 1.668-3.704 3.725 0 2.057 1.659 3.724 3.704 3.724 2.046 0 3.705-1.667 3.705-3.724 0-2.057-1.659-3.725-3.705-3.725z"/>
        <path fill="#3A312A" fill-rule="nonzero" d="M67.464 78.804c-2.537 0-4.6 2.075-4.6 4.626 0 2.55 2.063 4.625 4.6 4.625 2.537 0 4.601-2.076 4.601-4.625 0-2.551-2.064-4.626-4.601-4.626zm0 7.45a2.82 2.82 0 0 1-2.808-2.824 2.82 2.82 0 0 1 2.808-2.824 2.82 2.82 0 0 1 2.81 2.824 2.82 2.82 0 0 1-2.81 2.824z"/>
        <path fill="#8AC6DD" d="M67.464 95.386c-2.047 0-3.704 1.667-3.704 3.724 0 2.056 1.659 3.724 3.704 3.724a3.715 3.715 0 0 0 3.705-3.724c0-2.057-1.659-3.724-3.705-3.724z"/>
        <path fill="#3A312A" fill-rule="nonzero" d="M67.464 94.485c-2.537 0-4.6 2.075-4.6 4.625s2.063 4.626 4.6 4.626c2.537 0 4.601-2.076 4.601-4.626 0-2.55-2.064-4.625-4.601-4.625zm0 7.45a2.82 2.82 0 0 1-2.808-2.825 2.82 2.82 0 0 1 2.808-2.824 2.82 2.82 0 0 1 2.81 2.824 2.82 2.82 0 0 1-2.81 2.824z"/>
        <path fill="#8AC6DD" d="M67.464 111.066c-2.047 0-3.704 1.668-3.704 3.725 0 2.056 1.659 3.723 3.704 3.723a3.715 3.715 0 0 0 3.705-3.723c0-2.057-1.659-3.725-3.705-3.725z"/>
        <path fill="#3A312A" fill-rule="nonzero" d="M67.464 110.167c-2.537 0-4.6 2.075-4.6 4.624 0 2.55 2.063 4.625 4.6 4.625 2.537 0 4.601-2.074 4.601-4.625 0-2.55-2.064-4.624-4.601-4.624zm0 7.448a2.82 2.82 0 0 1-2.808-2.824 2.82 2.82 0 0 1 2.808-2.823 2.82 2.82 0 0 1 2.81 2.823 2.82 2.82 0 0 1-2.81 2.824z"/>
        <path fill="#8AC6DD" d="M18.734 53.558c-2.558 0-4.63 2.084-4.63 4.653v11.827c0 2.57 2.072 4.655 4.63 4.655h3.136V53.558h-3.136z"/>
        <path fill="#3A312A" fill-rule="nonzero" d="M21.868 52.657h-3.134c-3.047 0-5.527 2.492-5.527 5.554v11.827c0 3.063 2.48 5.555 5.527 5.555h3.134a.897.897 0 0 0 .896-.9V53.558c0-.499-.4-.9-.896-.9zm-.896 21.135h-2.238c-2.06 0-3.735-1.684-3.735-3.754V58.211c0-2.069 1.675-3.753 3.735-3.753h2.238v19.334z"/>
        <path fill="#8AC6DD" d="M116.195 53.558h-3.136v21.135h3.136c2.558 0 4.63-2.083 4.63-4.655V58.211c0-2.57-2.072-4.653-4.63-4.653z"/>
        <g fill="#3A312A">
            <path fill-rule="nonzero" d="M116.194 52.657h-3.135a.898.898 0 0 0-.896.9v21.136c0 .498.402.9.896.9h3.135c3.048 0 5.527-2.492 5.527-5.555V58.211c0-3.062-2.48-5.554-5.527-5.554zm3.735 17.381c0 2.07-1.676 3.754-3.735 3.754h-2.239V54.458h2.24c2.058 0 3.734 1.684 3.734 3.753v11.827z"/>
            <path d="M62.213 37.56a2.332 2.332 0 0 0-2.327 2.339c0 1.292 1.04 2.34 2.327 2.34a2.333 2.333 0 0 0 2.327-2.34 2.333 2.333 0 0 0-2.327-2.34zM72.715 37.56a2.332 2.332 0 0 0-2.326 2.339c0 1.292 1.04 2.34 2.326 2.34a2.333 2.333 0 0 0 2.328-2.34 2.333 2.333 0 0 0-2.328-2.34z"/>
        </g>
        <path fill="#68A8BC" d="M67.81 1.915h-.693c-.925 0-1.84.048-2.736.15C76.807 3.41 86.573 13.805 87.015 26.54h6.177C92.714 12.879 81.514 1.915 67.81 1.915zM97.051 28.34h-6.17a3.195 3.195 0 0 1 3.183 3.2c0 1.761-1.428 3.201-3.184 3.201h6.171c1.756 0 3.184-1.44 3.184-3.2 0-1.765-1.428-3.2-3.184-3.2z"/>
        <path fill="#B9BC39" fill-rule="nonzero" d="M91.729 74.695v44.649c0 2.072-1.673 3.752-3.734 3.752h6.374c2.06 0 3.733-1.68 3.733-3.752V74.695c0-.498.4-.9.896-.9h-6.373a.9.9 0 0 0-.896.9zm14.06-20.235v19.334h6.374V54.46h-6.373z"/>
    </g>
</svg>
