<svg xmlns="http://www.w3.org/2000/svg" width="63" height="62" viewBox="0 0 63 62">
    <g fill="none" fill-rule="evenodd" opacity=".66">
        <path fill="#000" d="M17.025.007c-.705.08-1.29.752-1.275 1.465v10.086c-.011.76.674 1.462 1.432 1.462.758 0 1.443-.702 1.431-1.462V1.472c.017-.817-.78-1.555-1.588-1.465zm28.636 0c-.704.08-1.289.752-1.275 1.465v10.086c-.011.76.674 1.462 1.432 1.462.758 0 1.443-.702 1.432-1.462V1.472c.017-.817-.78-1.555-1.589-1.465zM7.875 5.077C3.538 5.076 0 8.634 0 13.002v41.07C0 58.438 3.538 62 7.875 62h47.25C59.462 62 63 58.44 63 54.073v-41.07c0-4.365-3.538-7.927-7.875-7.927h-3.58c-.755-.011-1.45.679-1.45 1.442 0 .76.695 1.453 1.45 1.442h3.58c2.802 0 5.011 2.224 5.011 5.043v41.07c0 2.82-2.209 5.044-5.011 5.044H7.875c-2.802 0-5.011-2.225-5.011-5.044V20.93H55.84c.755.01 1.451-.679 1.451-1.442 0-.76-.696-1.453-1.451-1.442H2.864v-5.043c0-2.819 2.209-5.043 5.011-5.043h3.58c.755.01 1.45-.68 1.45-1.442 0-.76-.695-1.453-1.45-1.442h-3.58zm14.9 0c-.75.036-1.402.754-1.365 1.508.036.755.75 1.408 1.499 1.375H40.09c.755.01 1.451-.679 1.451-1.442 0-.76-.696-1.453-1.451-1.442H22.774z"/>
        <path stroke="#000" stroke-width="2.5" d="M9 28h44v10H9z"/>
    </g>
</svg>
