<svg xmlns="http://www.w3.org/2000/svg" width="169" height="112" viewBox="0 0 169 112">
    <g fill="none" fill-rule="evenodd">
        <path fill="#9B9B9B" d="M102.327 47.734c-4.234-13.282-16.547-22.359-30.75-22.359-14.79 0-27.423 9.824-31.163 23.777a23.243 23.243 0 0 0-3.315-.239c-10.822 0-20.14 6.983-23.182 17.178C5.411 70.06 0 78.447 0 87.892 0 101.182 10.869 112 24.22 112h76.57c17.812 0 32.308-14.422 32.308-32.156 0-17.217-13.664-31.316-30.77-32.111l-.001.001zm-1.538 58.113h-76.57c-9.937 0-18.037-8.056-18.037-17.953 0-7.427 4.506-13.985 11.468-16.708l1.524-.596.366-1.584c1.884-8.207 9.105-13.938 17.566-13.938 1.597 0 3.234.225 4.858.676l3.322.92.559-3.385c2.083-12.607 12.905-21.755 25.737-21.755 12.154 0 22.59 8.221 25.392 19.993l.579 2.438 3.234-.112c14.404 0 26.125 11.659 26.125 25.995 0 14.349-11.715 26.008-26.125 26.008h.002z"/>
        <path fill="#FFC90A" d="M131.347 19.25c-11.108 0-20.14 9.089-20.14 20.258 0 1.19.12 2.347.311 3.484a37.974 37.974 0 0 1 7.22 2.606 13.996 13.996 0 0 1-1.395-6.084c0-7.765 6.275-14.081 13.998-14.081 7.73 0 14.01 6.316 14.01 14.081 0 7.766-6.28 14.082-14.01 14.082a14.99 14.99 0 0 1-1.647-.106 38.233 38.233 0 0 1 4.754 6.01c9.634-1.516 17.039-9.887 17.039-19.985.013-11.177-9.032-20.265-20.14-20.265zM126.969 11.375h6.13V0h-6.13zM105.761 9.625l8.073 8.067-4.186 4.183-8.073-8.067zM156.055 68.25l-8.07-8.065L152.172 56l8.07 8.065zM157.617 42H169v-6.125h-11.383zM156.055 9.625l4.189 4.183-8.071 8.067-4.189-4.183z"/>
    </g>
</svg>
