<svg xmlns="http://www.w3.org/2000/svg" width="109" height="109" viewBox="0 0 109 109">
    <g fill="none" fill-rule="evenodd">
        <path fill="#3A312A" d="M54.533 61.114a.715.715 0 0 0-.716.715v46.109a.715.715 0 0 0 1.43 0v-46.11a.715.715 0 0 0-.714-.714z"/>
        <path fill="#3A312A" d="M63.684 89.862a.716.716 0 0 0-1.002-.134L54.1 96.284a.715.715 0 0 0 .868 1.137l8.582-6.556a.716.716 0 0 0 .134-1.003z"/>
        <path fill="#3A312A" d="M54.94 96.284l-8.582-6.556a.716.716 0 0 0-.87 1.137l8.584 6.556a.715.715 0 0 0 .869-1.137z"/>
        <path fill="#D7E057" d="M77.766 24.852c-1.056-.447-2.824 1.038-4.897 3.855.066-7.339-.853-12.293-2.641-12.54-1.175-.164-2.543 1.73-3.893 5.054.219-8.2-.699-13.855-2.611-14.121-1.42-.198-3.122 2.61-4.734 7.318-.93-7.787-2.578-12.97-4.457-12.97s-3.527 5.183-4.457 12.97C48.464 9.71 46.762 6.902 45.343 7.1c-1.914.266-2.83 5.92-2.612 14.12-1.35-3.324-2.718-5.216-3.893-5.053-1.788.247-2.707 5.201-2.64 12.54-2.074-2.817-3.842-4.302-4.897-3.855-1.628.69-1.128 5.8.966 12.726l2.413 6.942c.4 1.026.824 2.068 1.27 3.122 2.849 6.711 6.022 12.41 8.647 15.829 3.075 4.658 6.669 7.753 9.936 7.753 3.535 0 7.335-3.424 10.487-8.494 2.51-3.47 5.443-8.84 8.095-15.088 4.919-11.589 7.001-21.793 4.65-22.79z"/>
        <path fill="#3A312A" d="M78.045 24.194c-1.15-.488-2.62.319-4.468 2.466-.092-5.314-.785-10.86-3.25-11.202-1.08-.156-2.155.687-3.247 2.553-.057-5.662-.754-11.272-3.258-11.62-1.497-.213-2.98 1.473-4.505 5.125C58.482 6.094 57.027.733 54.533.733c-2.493 0-3.95 5.36-4.784 10.783-1.526-3.653-3.011-5.338-4.506-5.125-2.503.348-3.2 5.958-3.257 11.62-1.092-1.865-2.163-2.71-3.247-2.553-2.465.343-3.158 5.889-3.25 11.202-1.847-2.147-3.318-2.956-4.468-2.466-2.737 1.162-.823 9.013.562 13.59a.714.714 0 1 0 1.369-.414c-2.52-8.331-2.013-11.588-1.371-11.86.361-.152 1.674.405 4.04 3.621a.715.715 0 0 0 1.293-.43c-.077-8.46 1.167-11.707 2.022-11.827.45-.07 1.6.842 3.133 4.615a.715.715 0 1 0 1.377-.289c-.254-9.52 1.09-13.267 1.995-13.394.532-.071 2.047 1.26 3.96 6.844a.712.712 0 0 0 .75.478.713.713 0 0 0 .636-.626C51.995 4.38 53.9 2.164 54.533 2.164s2.538 2.216 3.746 12.338a.714.714 0 0 0 1.387.148c1.912-5.583 3.429-6.922 3.959-6.844.906.127 2.249 3.875 1.995 13.394a.717.717 0 0 0 1.378.289c1.532-3.773 2.69-4.668 3.132-4.615.855.12 2.1 3.367 2.024 11.827a.715.715 0 0 0 1.29.43c2.368-3.216 3.68-3.774 4.042-3.62.423.18.964 1.795-.02 6.622-.87 4.259-2.649 9.667-5.01 15.23-2.522 5.943-5.443 11.392-8.015 14.948a.41.41 0 0 0-.028.042c-3.222 5.183-6.823 8.155-9.88 8.155-2.818 0-6.222-2.709-9.34-7.431l-.028-.041c-2.706-3.526-5.824-9.239-8.556-15.673-.431-1.017-.857-2.06-1.262-3.102a.714.714 0 1 0-1.333.518c.411 1.055.841 2.112 1.28 3.143 2.77 6.528 5.948 12.345 8.72 15.964 3.433 5.193 7.168 8.052 10.519 8.052 3.61 0 7.545-3.128 11.081-8.81 2.628-3.64 5.6-9.18 8.16-15.207 2.395-5.647 4.205-11.153 5.092-15.503.996-4.877.727-7.567-.821-8.224z"/>
        <path fill="#D7E057" d="M105.067 73.197c-.47-.808-2.31-.734-5.03.048 5.191-3.859 8.253-7.183 7.485-8.498-.569-.976-3.14-.664-6.845.628 4.377-4.368 6.788-7.915 5.873-9.08-.915-1.166-4.932.336-10.213 3.553 2.133-3.293 3.046-5.716 2.232-6.501-1.097-1.057-5.05 1.13-10.03 5.259 1.404-2.457 1.912-4.227 1.238-4.877-1.025-.988-4.543.856-9.064 4.472.737-2.658.797-4.479.006-4.916-1.763-.971-7.077 5.29-11.869 13.985-2.774 5.036-4.762 9.779-5.604 13.073-1.391 4.176-1.56 7.911.032 9.938 1.721 2.193 5.695 2.881 10.375 2.367 3.375-.134 8.134-.931 13.3-2.33 9.583-2.594 16.925-6.272 16.399-8.216-.236-.872-2.02-1.245-4.776-1.16 4.584-3.533 7.208-6.515 6.491-7.745z"/>
        <path fill="#3A312A" fill-rule="nonzero" d="M105.686 72.837c-.425-.73-1.333-1.031-2.796-.906 3.364-2.752 6.262-5.807 5.25-7.544-.601-1.032-2.257-1.198-5.036-.5 3.697-4.016 5.045-6.714 4.008-8.034-1.037-1.32-3.978-.65-8.755 1.99 1.339-2.533 1.568-4.183.707-5.011-1.447-1.395-5.101.698-8.572 3.312.466-1.39.389-2.344-.22-2.93-1.205-1.163-4.033-.087-8.416 3.196.343-2.037.08-3.27-.792-3.75-1.235-.68-3.095.474-5.69 3.53-2.271 2.676-4.811 6.49-7.15 10.736-2.704 4.907-4.768 9.72-5.665 13.215-1.563 4.706-1.508 8.463.155 10.582 1.446 1.84 4.266 2.805 8.085 2.805.913 0 1.885-.055 2.907-.167 3.546-.144 8.44-1 13.433-2.352 4.679-1.267 8.985-2.831 12.125-4.404 3.583-1.796 5.146-3.33 4.777-4.69-.26-.961-1.395-1.509-3.456-1.658 4.23-3.48 5.944-5.972 5.1-7.42zm-7.547 7.54a.714.714 0 0 0-.236.808c.104.291.393.496.696.473 3.203-.103 4.02.472 4.063.63.051.19-.484 1.259-4.038 3.04-3.057 1.53-7.268 3.058-11.857 4.3-4.906 1.328-9.695 2.169-13.142 2.306-.017 0-.033.002-.05.004-4.73.518-8.278-.245-9.734-2.099-1.341-1.706-1.31-5.085.084-9.269a.994.994 0 0 0 .015-.05c.865-3.384 2.883-8.087 5.538-12.903 2.295-4.165 4.777-7.895 6.988-10.5 2.32-2.733 3.495-3.219 3.829-3.219.036 0 .063.006.08.015.144.079.507 1.008-.35 4.097a.716.716 0 0 0 1.135.75c5.811-4.649 7.885-4.747 8.122-4.516.155.15.237 1.206-1.363 4.007a.716.716 0 0 0 1.077.906c6.501-5.393 8.813-5.547 9.077-5.295.206.199.22 1.654-2.336 5.597a.715.715 0 0 0 .972.999c6.854-4.174 9.063-3.999 9.28-3.722.215.275-.137 2.463-5.816 8.133a.715.715 0 0 0 .74 1.181c4.438-1.548 5.848-1.19 5.992-.944.184.316-.514 2.526-7.294 7.564a.714.714 0 0 0 .624 1.261c3.101-.891 4.107-.56 4.216-.374.165.286-.42 2.278-6.312 6.82z"/>
        <path fill="#D7E057" d="M45.662 80.343c-.842-3.293-2.831-8.036-5.604-13.072-4.792-8.695-10.106-14.957-11.87-13.985-.791.437-.73 2.258.006 4.915-4.52-3.616-8.039-5.459-9.064-4.47-.674.648-.165 2.418 1.238 4.876-4.978-4.13-8.932-6.316-10.029-5.26-.814.785.098 3.208 2.233 6.501-5.282-3.217-9.3-4.719-10.215-3.553-.915 1.165 1.497 4.712 5.873 9.08-3.705-1.292-6.275-1.605-6.845-.628-.767 1.316 2.295 4.64 7.486 8.498-2.72-.782-4.56-.855-5.031-.048-.716 1.23 1.908 4.212 6.492 7.747-2.757-.087-4.54.286-4.777 1.16-.462 1.706 5.148 4.752 13.016 7.227l6.771 1.833c3.833.875 7.291 1.38 9.913 1.484 4.679.515 8.654-.174 10.375-2.367 1.591-2.026 1.423-5.762.032-9.938z"/>
        <path fill="#3A312A" d="M46.349 80.14c-.897-3.492-2.961-8.306-5.666-13.214-3.12-5.662-9.82-15.933-12.84-14.266-.872.48-1.134 1.714-.79 3.75-4.384-3.283-7.213-4.358-8.419-3.196-.608.586-.685 1.54-.218 2.931-3.472-2.615-7.127-4.708-8.573-3.312-.86.827-.63 2.477.708 5.01-4.778-2.64-7.718-3.309-8.755-1.99-1.037 1.321.31 4.018 4.008 8.034-2.777-.698-4.434-.532-5.036.5-1.012 1.738 1.887 4.792 5.25 7.544-1.461-.123-2.37.177-2.795.906-.844 1.448.871 3.94 5.099 7.421-2.06.15-3.195.697-3.455 1.658-.916 3.38 11.077 7.338 13.49 8.097a.715.715 0 0 0 .43-1.364c-9.361-2.945-12.718-5.705-12.54-6.36.043-.159.856-.732 4.063-.631.306.02.59-.18.696-.473a.717.717 0 0 0-.237-.808c-5.892-4.542-6.476-6.534-6.31-6.82.108-.186 1.115-.516 4.215.376a.714.714 0 0 0 .625-1.262c-6.78-5.038-7.48-7.248-7.295-7.564.144-.247 1.554-.604 5.991.944a.714.714 0 0 0 .74-1.181c-5.679-5.67-6.03-7.858-5.814-8.133.217-.276 2.426-.451 9.279 3.722a.715.715 0 1 0 .972-1c-2.556-3.942-2.542-5.397-2.336-5.595.264-.253 2.576-.098 9.076 5.294a.715.715 0 0 0 1.077-.905c-1.6-2.802-1.518-3.858-1.363-4.007.238-.226 2.312-.133 8.12 4.514a.715.715 0 0 0 1.137-.749c-.857-3.089-.494-4.017-.35-4.097.763-.408 5.401 3.728 10.898 13.704 2.654 4.817 4.673 9.521 5.538 12.904a.57.57 0 0 0 .014.05c1.394 4.182 1.425 7.561.085 9.268-1.456 1.855-5.003 2.618-9.735 2.098a.88.88 0 0 0-.05-.003c-2.62-.106-6.094-.626-9.781-1.467a.716.716 0 0 0-.319 1.394c3.76.859 7.315 1.391 10.018 1.501 1.023.111 1.994.167 2.907.167 3.819 0 6.64-.966 8.085-2.806 1.663-2.12 1.72-5.877.156-10.583z"/>
        <path fill="#B9BC39" d="M77.487 25.51c-.367-.157-1.678.405-4.043 3.62a.714.714 0 0 1-1.292-.43v-.16c-.122.204-2.33 10.482-5.87 18.823-2.522 5.94-5.445 11.392-8.016 14.948-.01.014-.018.03-.028.043-2.174 3.495-4.52 5.99-6.756 7.233 1.062.606 2.088.92 3.05.92 3.057 0 6.658-2.97 9.88-8.153l.03-.043c2.57-3.556 5.492-9.007 8.015-14.948 5.664-13.346 6.285-21.319 5.03-21.853zM106.902 65.105c-.142-.243-1.554-.6-5.988.944a.718.718 0 0 1-.468 0c-.634 1.111-2.44 3.224-7.014 6.624a.715.715 0 0 0 .625 1.258c3.099-.891 4.11-.563 4.215-.372.166.282-.415 2.275-6.309 6.82a.71.71 0 0 0-.238.805c.105.29.39.5.696.472.243-.01.473-.01.691-.01 2.633 0 3.333.5 3.372.644.053.187-.482 1.254-4.038 3.037-3.057 1.531-7.267 3.057-11.855 4.302-4.591 1.244-9.087 2.059-12.463 2.27 1.54.247 3.38.266 5.445.038.019 0 .033 0 .052-.006 3.448-.133 8.235-.972 13.142-2.302 4.59-1.245 8.801-2.77 11.858-4.302 3.553-1.783 4.086-2.85 4.039-3.037-.038-.143-.744-.643-3.372-.643-.22 0-.448 0-.69.009-.306.029-.592-.182-.697-.472a.713.713 0 0 1 .234-.806c5.893-4.544 6.475-6.537 6.313-6.819-.11-.19-1.116-.52-4.215.372a.714.714 0 0 1-.84-.372.705.705 0 0 1 .215-.886c6.775-5.04 7.476-7.248 7.29-7.568zM44.982 80.57l-.014-.05c-.863-3.384-2.885-8.086-5.536-12.901-2.298-4.168-4.778-7.897-6.99-10.5-2.575-3.033-3.739-3.3-3.91-3.204-.143.076-.506 1.006.353 4.096a.717.717 0 0 1-1.14.749 21.34 21.34 0 0 0-.419-.33c1.93 2.48 3.995 5.679 5.927 9.189 2.656 4.815 4.673 9.517 5.54 12.902l.015.048c1.392 4.186 1.426 7.562.086 9.27-.82 1.043-2.304 1.745-4.287 2.06.234.013.458.023.677.032.014.006.033.006.047.006 4.73.524 8.283-.244 9.737-2.099 1.34-1.707 1.311-5.083-.086-9.269z"/>
    </g>
</svg>
