<svg xmlns="http://www.w3.org/2000/svg" width="77" height="45" viewBox="0 0 77 45">
    <g fill="none" fill-rule="evenodd">
        <g fill="#000">
            <path d="M5.547 37.575v.042l1.735-1.709H1.898l1.735 1.71c0-1.049.046-2.094.135-3.139.047-.53.106-1.058.175-1.588-.059.459 0 .01.014-.072l.06-.39c.045-.303.102-.606.158-.909a35.3 35.3 0 0 1 2.06-6.956c.049-.117.098-.238.148-.355-.175.414-.003.01.03-.062.224-.507.462-1.009.707-1.507a35.507 35.507 0 0 1 3.342-5.413c.152-.205.307-.404.462-.606-.27.352-.003.01.043-.052.08-.097.159-.198.242-.296a36.273 36.273 0 0 1 5.725-5.576c.062-.049.406-.313.052-.042.103-.079.205-.153.308-.228a36.254 36.254 0 0 1 4.773-2.995 36.423 36.423 0 0 1 2.445-1.169c.08-.036.618-.26.182-.081a36.078 36.078 0 0 1 3.064-1.107 36.924 36.924 0 0 1 4.756-1.14c.265-.045.53-.084.794-.126.132-.02.264-.04.4-.056-.486.069.115-.013.205-.022a37.684 37.684 0 0 1 8.312-.046c.268.03.536.062.804.095-.466-.06-.01 0 .069.013a36.895 36.895 0 0 1 3.781.749 36.177 36.177 0 0 1 4.598 1.497l.36.146c-.42-.172-.01-.003.063.03a36.622 36.622 0 0 1 7.635 4.443c-.357-.27-.01-.004.053.042.1.078.202.156.3.238.232.185.464.374.692.563a36.155 36.155 0 0 1 4.971 5.075c.05.062.317.4.043.052.08.1.155.202.231.303a35.915 35.915 0 0 1 4.122 6.872l.158.35c.034.072.205.476.03.063a37.265 37.265 0 0 1 .88 2.282 35.268 35.268 0 0 1 1.351 5.156c.063.345.12.693.175 1.041.014.088.096.68.03.202a35.654 35.654 0 0 1 .307 4.727l1.736-1.71h-5.47l1.735 1.71v-.042c0-.931-.79-1.71-1.735-1.71-.946 0-1.736.779-1.736 1.71v.042c0 .93.79 1.709 1.736 1.709h5.47c.945 0 1.735-.778 1.735-1.71 0-8.954-3.289-17.617-9.162-24.436-5.725-6.65-13.915-11.2-22.648-12.6-9.086-1.459-18.523.318-26.356 5.107C10.577 10.329 4.83 17.588 2.026 25.95.77 29.695.16 33.676.16 37.618c0 .931.79 1.709 1.735 1.709H7.28c.945 0 1.735-.778 1.735-1.709v-.042c0-.931-.79-1.71-1.735-1.71-.942 0-1.732.779-1.732 1.71v-.001z"/>
            <path d="M35.965 31.175c-2.647.95-4.336 3.265-4.591 6-.238 2.542 1.273 5.051 3.474 6.308 2.247 1.283 5.242 1.156 7.35-.345 1.74-1.237 2.724-3.037 2.933-5.124.191-1.924-.452-4.033-1.935-5.24-6.246-5.085-3.179 1.75-2.518 2.415.09.09.176.182.262.276.287.323-.212-.296.043.052.152.205.277.427.393.651.04.075.198.47.033.059.046.12.086.244.125.365.04.123.067.25.096.377.02.085.033.173.05.257-.03-.237-.036-.257-.013-.058.023.234.016.472.006.706-.003.088-.066.527.004.069-.02.126-.05.253-.08.38-.03.124-.07.248-.105.371-.027.079-.189.479-.01.066-.116.27-.268.524-.43.771-.046.068-.31.4-.03.055-.08.098-.165.19-.251.28-.086.091-.179.176-.274.264-.06.055-.4.319-.043.052a5.141 5.141 0 0 1-.651.404c-.113.062-.232.114-.348.166.427-.192-.105.02-.195.045-.125.04-.254.069-.383.095-.086.02-.529.075-.066.023a5.394 5.394 0 0 1-1.094 0c.46.042.023-.004-.066-.02a5.06 5.06 0 0 1-.384-.094c-.089-.023-.631-.228-.198-.046a5.053 5.053 0 0 1-1.001-.573c.36.254.02.003-.043-.052a5.143 5.143 0 0 1-.526-.544c.284.336.02.017-.03-.055a4.394 4.394 0 0 1-.26-.43c-.064-.11-.117-.224-.17-.338.189.403.02.016-.01-.065a4.902 4.902 0 0 1-.184-.752c.082.452.01.023.003-.069-.007-.1-.007-.201-.01-.302a4.12 4.12 0 0 1 .016-.404c.02-.195.017-.176-.013.059.013-.088.03-.173.05-.258a4.8 4.8 0 0 1 .221-.742c-.152.41-.006.02.033-.058.057-.114.123-.225.185-.336.063-.11.136-.214.209-.319.244-.354-.238.277.043-.052.191-.224.413-.426.638-.615-.338.28-.01.016.06-.032.105-.072.217-.137.326-.199.113-.065.228-.12.344-.176.397-.189-.35.127.066-.02.248-.087.506-.15.764-.198.446-.088-.387.033.072-.006.14-.013.278-.017.417-.017.135 0 .27.007.41.017.198.02.178.016-.063-.013.086.013.175.029.261.048.129.026.255.062.383.095.09.026.632.228.195.045.278.114.536.264.79.427.07.045.407.306.06.032.132.105.258.222.377.339.677.65-2.235-4.909-4.717-4.017zM40 7.966V1.768c0-.931-.79-1.71-1.735-1.71-.945 0-1.735.779-1.735 1.71v6.198c0 .93.79 1.709 1.735 1.709.945 0 1.735-.778 1.735-1.71zM17.498 14.717l-3.725-3.669a1.771 1.771 0 0 0-2.452 0 1.707 1.707 0 0 0 0 2.415l3.725 3.669a1.771 1.771 0 0 0 2.452 0 1.707 1.707 0 0 0 0-2.415zM62.735 11.048l-3.725 3.669a1.707 1.707 0 0 0 0 2.415 1.771 1.771 0 0 0 2.452 0l3.725-3.668a1.707 1.707 0 0 0 0-2.416c-.664-.66-1.781-.66-2.452 0z"/>
            <path d="M40 32.493V17.148c0-.93-.79-1.709-1.735-1.709-.945 0-1.735.778-1.735 1.71v15.344c0 .931.79 1.71 1.735 1.71.945 0 1.735-.779 1.735-1.71z"/>
        </g>
        <circle cx="38" cy="38" r="4" fill="#FFC90A"/>
    </g>
</svg>
