<svg xmlns="http://www.w3.org/2000/svg" width="104" height="104" viewBox="0 0 104 104">
    <g fill="none" fill-rule="evenodd">
        <path fill="#D7E057" d="M62.02 1.923c-2.808-.564-5.83 2.695-8.453 15.764-2.623 13.068-2.473 24.12.334 24.683 2.808.564 7.21-9.574 9.834-22.643C66.358 6.66 64.827 2.487 62.02 1.923z"/>
        <path fill="#3A312A" fill-rule="nonzero" d="M65.619 6.032c-.416-2.813-1.579-4.43-3.459-4.808-3.943-.795-6.897 4.395-9.29 16.323-1.28 6.368-1.949 12.47-1.885 17.18.07 5.18 1.004 7.986 2.776 8.342.116.023.233.034.35.034 3.717 0 7.966-11.5 10.322-23.236 1.252-6.235 1.64-10.76 1.186-13.835zm-2.583 13.555c-2.814 14.019-7.2 22.436-8.995 22.084-.572-.115-1.56-1.711-1.631-6.963-.062-4.613.596-10.608 1.856-16.881 2.008-10.003 4.486-15.249 7.19-15.249.141 0 .283.014.425.043.457.092 1.85.371 2.329 3.618.423 2.87.029 7.36-1.174 13.348z"/>
        <path fill="#D7E057" d="M50.014 61.734c-2.808-.564-7.21 9.574-9.834 22.643-2.623 13.068-1.093 17.241 1.715 17.805 2.807.564 5.83-2.695 8.453-15.764 2.623-13.07 2.474-24.12-.334-24.684z"/>
        <path fill="#3A312A" fill-rule="nonzero" d="M52.93 69.377c-.07-5.18-1.004-7.985-2.776-8.341-1.773-.354-3.716 1.872-5.78 6.623-1.876 4.322-3.614 10.208-4.893 16.578-2.394 11.926-1.671 17.85 2.274 18.643.26.052.515.078.768.078 3.563 0 6.287-5.26 8.524-16.4 1.278-6.368 1.946-12.47 1.883-17.181zm-3.28 16.9c-2.112 10.523-4.742 15.777-7.615 15.207-2.869-.576-3.269-6.444-1.157-16.967 1.259-6.273 2.965-12.058 4.803-16.29 1.998-4.6 3.48-5.803 4.109-5.803.03 0 .057.003.083.009.573.115 1.561 1.71 1.633 6.962.062 4.614-.597 10.61-1.856 16.882z"/>
        <path fill="#D7E057" d="M86.323 53.661c-13.07-2.623-24.12-2.474-24.683.334-.564 2.809 9.573 7.21 22.642 9.834 13.069 2.623 17.242 1.093 17.805-1.714.563-2.808-2.696-5.83-15.764-8.454z"/>
        <path fill="#3A312A" fill-rule="nonzero" d="M86.463 52.964c-12.106-2.431-24.76-2.905-25.522.892-.762 3.795 11.094 8.242 23.2 10.672 4.553.914 8.23 1.374 11.082 1.374 4.62 0 7.072-1.207 7.562-3.647.792-3.945-4.395-6.897-16.322-9.291zm14.926 9.01c-.576 2.87-6.442 3.269-16.967 1.157-14.018-2.814-22.443-7.208-22.084-8.995.191-.949 2.948-1.62 7.59-1.62 4.103 0 9.678.524 16.255 1.845 10.523 2.111 15.781 4.745 15.206 7.613z"/>
        <path fill="#D7E057" d="M19.634 40.274C6.564 37.651 2.392 39.182 1.828 41.99c-.563 2.808 2.695 5.83 15.764 8.454 13.069 2.623 24.12 2.473 24.683-.335.564-2.808-9.574-7.21-22.641-9.834z"/>
        <path fill="#3A312A" fill-rule="nonzero" d="M19.774 39.576c-6.236-1.251-10.762-1.639-13.837-1.185-2.812.415-4.43 1.578-4.807 3.458-.792 3.945 4.394 6.897 16.322 9.291 5.849 1.175 11.824 1.892 16.526 1.892 5.03 0 8.602-.821 8.996-2.784.762-3.795-11.095-8.242-23.2-10.672zm21.804 10.393c-.36 1.788-9.827 2.59-23.845-.225C7.21 47.631 1.951 44.998 2.527 42.13c.091-.457.371-1.85 3.619-2.33a17.866 17.866 0 0 1 2.557-.164c2.74 0 6.355.447 10.79 1.338 14.018 2.814 22.443 7.208 22.085 8.996z"/>
        <path fill="#D7E057" d="M94.52 23.721c-1.587-2.385-6.028-2.217-17.125 5.17C66.3 36.275 58.591 44.196 60.178 46.58c1.587 2.384 11.868-1.672 22.964-9.058 11.096-7.385 12.965-11.418 11.378-13.802z"/>
        <path fill="#3A312A" fill-rule="nonzero" d="M95.113 23.326c-1.062-1.596-3-2.058-5.761-1.376-3.016.746-7.057 2.823-12.35 6.347-5.408 3.6-10.196 7.44-13.481 10.817-3.613 3.711-4.938 6.356-3.936 7.86.442.664 1.263.997 2.459.997 1.512 0 3.62-.532 6.31-1.593 4.384-1.73 9.776-4.662 15.183-8.262 10.127-6.74 13.805-11.44 11.576-14.79zM82.748 36.93c-5.326 3.546-10.624 6.43-14.915 8.123-4.887 1.927-6.739 1.618-7.062 1.132-.323-.486.106-2.313 3.77-6.078 3.217-3.305 7.924-7.08 13.248-10.624 5.085-3.385 9.09-5.453 11.905-6.15.767-.19 1.395-.266 1.91-.266 1.625 0 2.127.753 2.322 1.048 1.623 2.436-2.243 6.868-11.178 12.815z"/>
        <path fill="#D7E057" d="M43.737 57.524c-1.587-2.383-11.869 1.672-22.964 9.057C9.678 73.967 7.81 78 9.396 80.384c1.587 2.383 6.028 2.216 17.124-5.17s18.804-15.306 17.217-17.69z"/>
        <path fill="#3A312A" fill-rule="nonzero" d="M44.33 57.13c-2.145-3.225-13.673 2.016-23.952 8.858-10.126 6.741-13.805 11.44-11.575 14.79.751 1.13 1.903 1.698 3.488 1.698 3.119 0 7.91-2.2 14.624-6.669 5.406-3.6 10.194-7.441 13.48-10.817 3.613-3.712 4.937-6.356 3.935-7.86zm-4.956 6.866c-3.218 3.306-7.924 7.08-13.249 10.625-8.935 5.947-14.514 7.803-16.137 5.368-1.62-2.436 2.245-6.868 11.18-12.815C33.07 59.251 42.132 56.4 43.144 57.92c.324.486-.106 2.313-3.77 6.077z"/>
        <path fill="#D7E057" d="M75.12 77.49c-7.387-11.096-15.307-18.804-17.69-17.218-2.384 1.587 1.671 11.869 9.057 22.965S77.905 96.2 80.289 94.615c2.384-1.588 2.216-6.03-5.17-17.125z"/>
        <path fill="#3A312A" fill-rule="nonzero" d="M75.713 77.096c-3.6-5.408-7.442-10.196-10.818-13.482-3.712-3.612-6.356-4.935-7.86-3.935-1.505 1.002-1.304 3.953.596 8.771 1.729 4.383 4.663 9.774 8.262 15.182 5.48 8.232 9.611 12.202 12.765 12.202.725 0 1.4-.21 2.025-.626 3.35-2.23 1.77-7.986-4.97-18.112zm4.182 16.926c-2.437 1.621-6.868-2.245-12.816-11.18-3.544-5.326-6.429-10.622-8.122-14.915-1.927-4.886-1.618-6.738-1.132-7.06a.647.647 0 0 1 .362-.089c.793 0 2.584.81 5.715 3.858 3.306 3.218 7.08 7.923 10.624 13.249 5.949 8.936 7.805 14.516 5.369 16.137z"/>
        <path fill="#D7E057" d="M37.429 20.868C30.043 9.771 26.01 7.903 23.626 9.49c-2.384 1.587-2.216 6.028 5.17 17.124 7.385 11.097 15.306 18.804 17.69 17.217 2.384-1.587-1.671-11.868-9.057-22.963z"/>
        <path fill="#3A312A" fill-rule="nonzero" d="M38.021 20.473c-3.524-5.294-6.45-8.77-8.944-10.622-2.283-1.695-4.25-2.015-5.846-.954-3.349 2.23-1.77 7.985 4.972 18.112 6.17 9.269 13.779 17.728 17.578 17.728a1.94 1.94 0 0 0 1.1-.312c3.222-2.145-2.017-13.674-8.86-23.952zm8.07 22.766c-1.52 1.015-8.78-5.116-16.702-17.02-5.948-8.935-7.804-14.515-5.368-16.136a2.018 2.018 0 0 1 1.204-.377c.676 0 1.647.282 3.002 1.289 2.328 1.729 5.225 5.184 8.608 10.267C44.76 33.164 47.61 42.228 46.091 43.24z"/>
        <path fill="#D7E057" d="M80.655 9.735c-2.371-1.607-6.42.226-13.901 11.26-7.481 11.03-11.625 21.277-9.254 22.885 2.37 1.607 10.357-6.034 17.838-17.066 7.48-11.031 7.687-15.471 5.317-17.079z"/>
        <path fill="#3A312A" fill-rule="nonzero" d="M81.054 9.145c-3.329-2.258-8.06 1.38-14.889 11.449-6.93 10.219-12.27 21.7-9.065 23.874.329.223.713.334 1.151.334 1.563 0 3.823-1.407 6.744-4.201 3.404-3.258 7.287-8.012 10.932-13.388 3.57-5.263 5.681-9.286 6.454-12.296.706-2.753.26-4.695-1.327-5.772zM81 14.563c-.72 2.81-2.824 6.797-6.253 11.852-3.59 5.294-7.404 9.968-10.738 13.156-3.795 3.632-5.627 4.045-6.11 3.719-1.508-1.024 1.42-10.063 9.445-21.897 5.115-7.542 9.105-11.44 11.675-11.44.458 0 .87.123 1.236.371.386.263 1.562 1.06.745 4.239z"/>
        <path fill="#D7E057" d="M46.415 60.225c-2.37-1.607-10.356 6.034-17.837 17.065-7.482 11.032-7.688 15.471-5.318 17.079 2.37 1.607 6.42-.227 13.9-11.258 7.482-11.032 11.625-21.278 9.255-22.886z"/>
        <path fill="#3A312A" fill-rule="nonzero" d="M46.815 59.635c-1.494-1.013-4.151.287-7.894 3.868-3.405 3.256-7.287 8.01-10.933 13.387-6.828 10.069-8.456 15.81-5.127 18.068.633.43 1.316.645 2.054.645 3.149 0 7.304-3.936 12.836-12.094 6.93-10.218 12.269-21.7 9.064-23.874zM36.572 82.711c-5.115 7.542-9.106 11.44-11.676 11.439-.457 0-.87-.124-1.235-.371-2.422-1.643-.518-7.206 5.506-16.09 3.59-5.294 7.405-9.968 10.74-13.156 3.143-3.008 4.938-3.809 5.738-3.809.165 0 .287.034.37.09 1.51 1.024-1.418 10.063-9.443 21.897z"/>
        <path fill="#D7E057" d="M83.016 66.849c-11.032-7.482-21.278-11.625-22.885-9.254-1.608 2.37 6.033 10.355 17.064 17.837 11.032 7.481 15.472 7.687 17.08 5.317 1.606-2.37-.227-6.42-11.259-13.9z"/>
        <path fill="#3A312A" fill-rule="nonzero" d="M93.96 75.295c-1.831-2.51-5.28-5.466-10.545-9.035-5.375-3.646-10.742-6.627-15.11-8.393-4.802-1.942-7.75-2.168-8.764-.672-2.173 3.205 7.035 11.897 17.254 18.827 5.264 3.57 9.285 5.68 12.296 6.453.846.217 1.614.326 2.305.326 1.56 0 2.721-.552 3.467-1.652 1.077-1.587.773-3.556-.903-5.854zm-.276 5.054c-.261.386-1.06 1.561-4.238.745-2.809-.72-6.796-2.823-11.851-6.251-11.834-8.025-17.899-15.34-16.875-16.848.131-.194.506-.357 1.22-.357 1.071 0 2.908.367 5.832 1.55 4.277 1.73 9.55 4.66 14.844 8.25 5.054 3.429 8.484 6.354 10.193 8.697 1.934 2.652 1.138 3.828.875 4.214z"/>
        <path fill="#D7E057" d="M26.72 28.672c-11.032-7.481-15.472-7.687-17.08-5.317-1.607 2.37.227 6.419 11.259 13.9C31.93 44.737 42.177 48.88 43.784 46.51c1.608-2.37-6.032-10.356-17.064-17.837z"/>
        <path fill="#3A312A" fill-rule="nonzero" d="M27.12 28.082c-5.264-3.57-9.287-5.68-12.297-6.452-2.753-.708-4.696-.262-5.772 1.325-1.076 1.587-.772 3.556.904 5.854 1.83 2.51 5.28 5.466 10.545 9.035 5.375 3.646 10.741 6.626 15.109 8.393 2.715 1.098 4.837 1.647 6.353 1.647 1.164 0 1.971-.325 2.412-.975 2.173-3.204-7.035-11.896-17.254-18.827zM43.195 46.11c-.328.485-2.181.777-7.052-1.192-4.277-1.731-9.548-4.661-14.844-8.252-5.055-3.427-8.485-6.353-10.193-8.697-1.935-2.652-1.137-3.827-.876-4.214.198-.29.697-1.026 2.287-1.026.523 0 1.165.08 1.952.282 2.81.72 6.796 2.824 11.851 6.252C38.153 37.287 44.22 44.6 43.195 46.11z"/>
        <path fill="#D7E057" d="M102.172 42.422c-.54-2.814-4.699-4.38-17.79-1.87-13.09 2.511-23.265 6.827-22.726 9.64.54 2.812 11.589 3.057 24.68.547 13.09-2.511 16.376-5.505 15.836-8.317z"/>
        <path fill="#3A312A" fill-rule="nonzero" d="M102.871 42.287c-.758-3.952-6.675-4.724-18.623-2.434-6.38 1.225-12.281 2.91-16.619 4.751-4.768 2.022-7.013 3.948-6.673 5.722.34 1.775 3.139 2.733 8.317 2.847.342.009.693.011 1.05.011 4.55 0 10.231-.612 16.146-1.746 11.948-2.291 17.16-5.199 16.402-9.15zm-16.67 7.751c-6.283 1.206-12.28 1.814-16.896 1.712-5.252-.117-6.839-1.118-6.95-1.692-.109-.573.995-2.092 5.831-4.143 4.247-1.802 10.048-3.457 16.33-4.662 4.33-.83 7.868-1.244 10.575-1.244 3.887 0 6.057.853 6.382 2.546.55 2.875-4.73 5.462-15.272 7.483z"/>
        <path fill="#D7E057" d="M42.26 53.913c-.54-2.814-11.59-3.058-24.68-.547C4.49 55.877 1.205 58.87 1.744 61.683c.54 2.812 4.698 4.379 17.79 1.868 13.09-2.51 23.265-6.826 22.725-9.638z"/>
        <path fill="#3A312A" fill-rule="nonzero" d="M42.959 53.778c-.34-1.775-3.14-2.733-8.316-2.847-4.71-.103-10.818.51-17.197 1.735-11.948 2.29-17.16 5.199-16.402 9.15.477 2.486 2.993 3.714 7.765 3.714 2.817 0 6.423-.429 10.859-1.28 6.378-1.224 12.28-2.91 16.618-4.75 4.768-2.022 7.013-3.948 6.673-5.722zm-7.23 4.411c-4.246 1.802-10.046 3.457-16.33 4.662-10.541 2.021-16.405 1.571-16.956-1.302-.552-2.875 4.73-5.462 15.27-7.483 5.83-1.118 11.415-1.722 15.874-1.722.348 0 .69.003 1.023.01 5.252.117 6.84 1.118 6.949 1.692.111.573-.993 2.092-5.83 4.143z"/>
        <path fill="#D7E057" d="M63.457 84.477c-2.511-13.091-6.827-23.266-9.64-22.726-2.812.539-3.057 11.588-.546 24.68 2.51 13.09 5.504 16.375 8.317 15.835 2.813-.54 4.38-4.7 1.869-17.79z"/>
        <path fill="#3A312A" fill-rule="nonzero" d="M64.156 84.342c-2.325-12.126-6.667-24.028-10.473-23.291-1.775.34-2.732 3.138-2.847 8.317-.105 4.71.512 10.817 1.735 17.197 2.147 11.192 4.834 16.473 8.414 16.473.242 0 .487-.024.737-.072 3.952-.759 4.725-6.676 2.434-18.624zm-2.702 17.224c-2.873.56-5.461-4.73-7.483-15.27-1.206-6.283-1.812-12.284-1.71-16.897.116-5.251 1.117-6.838 1.69-6.949 1.788-.358 6.112 8.118 8.805 22.16 2.022 10.542 1.572 16.405-1.302 16.956z"/>
        <path fill="#D7E057" d="M50.644 17.674c-2.51-13.09-5.505-16.375-8.317-15.837-2.813.54-4.379 4.7-1.868 17.79 2.51 13.091 6.826 23.266 9.639 22.726 2.812-.539 3.057-11.588.546-24.68z"/>
        <path fill="#3A312A" fill-rule="nonzero" d="M51.344 17.54C49.052 5.592 46.144.377 42.192 1.138c-1.882.362-3.06 1.97-3.499 4.779-.48 3.07-.132 7.599 1.067 13.845 2.257 11.772 6.416 23.323 10.136 23.323.113 0 .225-.01.336-.03 1.774-.341 2.733-3.14 2.848-8.319.104-4.71-.513-10.816-1.736-17.196zm.311 17.165c-.117 5.251-1.118 6.838-1.692 6.949-1.779.348-6.111-8.118-8.805-22.16C40.008 13.495 39.652 9 40.1 6.135c.507-3.242 1.903-3.51 2.361-3.597.137-.027.271-.04.406-.04 2.712 0 5.151 5.268 7.078 15.31 1.204 6.283 1.812 12.285 1.71 16.897z"/>
        <path fill="#D7E057" d="M51.957.923c-2.863 0-5.184 3.79-5.184 17.119 0 13.33 2.321 24.135 5.184 24.135 2.864 0 5.186-10.806 5.186-24.135 0-13.33-2.322-17.12-5.186-17.12z"/>
        <path fill="#3A312A" fill-rule="nonzero" d="M51.958.21c-4.024 0-5.898 5.667-5.898 17.832 0 12.348 2.026 24.847 5.898 24.847s5.897-12.5 5.897-24.847c0-12.165-1.874-17.831-5.897-17.831zm0 41.254c-1.824 0-4.473-9.124-4.473-23.422 0-10.733 1.547-16.407 4.473-16.407 2.927 0 4.473 5.674 4.473 16.407 0 14.298-2.65 23.422-4.473 23.422z"/>
        <path fill="#D7E057" d="M51.957 61.927c-2.863 0-5.184 10.806-5.184 24.135 0 13.33 2.321 17.12 5.184 17.12 2.864 0 5.186-3.79 5.186-17.12 0-13.328-2.322-24.135-5.186-24.135z"/>
        <path fill="#3A312A" fill-rule="nonzero" d="M51.958 61.215c-3.872 0-5.898 12.499-5.898 24.847 0 12.165 1.874 17.832 5.898 17.832 4.024 0 5.897-5.667 5.897-17.832 0-12.348-2.025-24.847-5.897-24.847zm0 41.255c-2.926 0-4.473-5.674-4.473-16.408 0-14.298 2.649-23.423 4.473-23.423 1.824 0 4.473 9.125 4.473 23.423 0 10.733-1.546 16.408-4.473 16.408z"/>
        <path fill="#D7E057" d="M85.967 46.866c-13.328 0-24.134 2.323-24.134 5.186s10.805 5.186 24.134 5.186c13.33 0 17.12-2.323 17.12-5.186 0-2.864-3.79-5.186-17.12-5.186z"/>
        <path fill="#3A312A" fill-rule="nonzero" d="M85.967 46.154c-12.348 0-24.847 2.027-24.847 5.898 0 3.871 12.5 5.898 24.847 5.898 12.166 0 17.833-1.874 17.833-5.898 0-4.024-5.667-5.898-17.833-5.898zm0 10.371c-14.297 0-23.422-2.649-23.422-4.473 0-1.824 9.125-4.473 23.422-4.473 10.733 0 16.408 1.547 16.408 4.473s-5.674 4.473-16.408 4.473z"/>
        <path fill="#D7E057" d="M17.947 46.866C4.618 46.866.828 49.19.828 52.052s3.79 5.186 17.12 5.186c13.329 0 24.135-2.323 24.135-5.186 0-2.864-10.806-5.186-24.136-5.186z"/>
        <path fill="#3A312A" fill-rule="nonzero" d="M17.947 46.154C5.782 46.154.116 48.028.116 52.052c0 4.024 5.666 5.898 17.831 5.898 12.348 0 24.847-2.027 24.847-5.898 0-3.871-12.499-5.898-24.847-5.898zm0 10.371c-10.733 0-16.406-1.547-16.406-4.473s5.672-4.473 16.406-4.473c14.298 0 23.423 2.649 23.423 4.473 0 1.824-9.124 4.473-23.423 4.473z"/>
        <path fill="#D7E057" d="M88.112 15.898c-2.026-2.025-6.347-.986-15.773 8.439-9.425 9.425-15.424 18.707-13.398 20.733 2.024 2.024 11.306-3.975 20.731-13.4 9.427-9.425 10.464-13.747 8.44-15.772z"/>
        <path fill="#3A312A" fill-rule="nonzero" d="M88.615 15.394c-2.844-2.845-8.177-.163-16.78 8.44-4.592 4.592-8.53 9.3-11.087 13.257-2.811 4.35-3.59 7.204-2.311 8.481.398.398.948.597 1.649.597 1.55 0 3.836-.971 6.832-2.907 3.958-2.558 8.666-6.495 13.259-11.088 4.496-4.498 7.327-8.05 8.654-10.862 1.212-2.57 1.14-4.562-.216-5.918zm-1.074 5.31c-1.237 2.624-4.054 6.144-8.371 10.462-4.525 4.524-9.15 8.395-13.025 10.9-4.412 2.85-6.288 2.912-6.7 2.5-.414-.414-.352-2.29 2.5-6.701 2.504-3.875 6.375-8.5 10.899-13.024 6.005-6.006 10.455-9.086 13.076-9.086.692 0 1.256.215 1.688.646.33.331 1.335 1.335-.067 4.304z"/>
        <path fill="#D7E057" d="M44.975 59.034c-2.026-2.025-11.307 3.975-20.733 13.4-9.425 9.425-10.464 13.747-8.44 15.772 2.027 2.025 6.348.987 15.773-8.44C41.001 70.343 47 61.06 44.975 59.035z"/>
        <path fill="#3A312A" fill-rule="nonzero" d="M45.479 58.53c-2.738-2.737-13.01 4.67-21.74 13.4-4.498 4.498-7.329 8.05-8.654 10.862-1.213 2.57-1.14 4.562.215 5.917.715.716 1.609 1.074 2.67 1.074.95 0 2.035-.286 3.248-.859 2.811-1.325 6.363-4.156 10.86-8.653 8.732-8.731 16.139-19.002 13.4-21.74zM31.072 79.264c-4.319 4.319-7.838 7.136-10.462 8.373-2.969 1.401-3.972.396-4.302.066-.33-.33-1.335-1.334.065-4.303 1.238-2.623 4.055-6.144 8.372-10.461 10.11-10.11 18.436-14.69 19.725-13.4 1.29 1.29-3.288 9.615-13.398 19.725z"/>
        <path fill="#D7E057" d="M79.672 72.434c-9.424-9.425-18.707-15.425-20.731-13.4-2.026 2.026 3.973 11.308 13.398 20.733 9.426 9.426 13.747 10.464 15.773 8.44 2.024-2.026.987-6.348-8.44-15.773z"/>
        <path fill="#3A312A" fill-rule="nonzero" d="M88.83 82.792c-1.326-2.812-4.156-6.364-8.653-10.862-8.73-8.73-19.002-16.137-21.74-13.4-2.738 2.739 4.668 13.01 13.399 21.74 4.497 4.498 8.05 7.329 10.86 8.654 1.214.573 2.298.86 3.248.86 1.062 0 1.955-.359 2.671-1.075 1.356-1.355 1.428-3.346.216-5.917zm-1.222 4.91c-.33.33-1.335 1.335-4.304-.066-2.623-1.237-6.142-4.054-10.461-8.373-10.11-10.11-14.689-18.435-13.399-19.725.142-.142.37-.213.675-.213 2.471 0 10.055 4.617 19.05 13.613 4.32 4.318 7.135 7.838 8.372 10.461 1.402 2.969.396 3.974.067 4.303z"/>
        <path fill="#D7E057" d="M31.575 24.337c-9.425-9.425-13.746-10.464-15.772-8.44-2.025 2.026-.986 6.348 8.44 15.773 9.424 9.425 18.706 15.424 20.732 13.4 2.025-2.026-3.974-11.308-13.4-20.733z"/>
        <path fill="#3A312A" fill-rule="nonzero" d="M43.167 37.091c-2.557-3.957-6.495-8.665-11.088-13.258-8.602-8.601-13.933-11.285-16.779-8.44-2.845 2.847-.164 8.178 8.439 16.78 7.474 7.474 16.077 13.978 20.116 13.978.679 0 1.23-.184 1.624-.579 1.278-1.277.5-4.13-2.312-8.48zm1.304 7.474c-1.292 1.29-9.615-3.289-19.725-13.399-7.59-7.59-10.508-12.696-8.438-14.765.432-.432.996-.646 1.688-.646 2.622 0 7.072 3.08 13.076 9.086 4.524 4.523 8.395 9.149 10.899 13.024 2.851 4.412 2.913 6.287 2.5 6.7z"/>
        <path fill="#D7E057" d="M71.765 4.915c-2.64-1.11-6.248 1.485-11.413 13.773-5.163 12.289-7.21 23.15-4.569 24.26 2.64 1.11 8.967-7.954 14.13-20.242 5.164-12.288 4.492-16.682 1.852-17.791z"/>
        <path fill="#3A312A" fill-rule="nonzero" d="M72.04 4.258c-3.71-1.56-7.632 2.94-12.344 14.155-2.517 5.988-4.383 11.836-5.255 16.466-.958 5.09-.6 8.026 1.067 8.726.234.098.48.148.74.148 1.596 0 3.69-1.842 6.238-5.493 2.698-3.863 5.568-9.29 8.085-15.277 2.463-5.864 3.741-10.222 3.906-13.326.15-2.84-.668-4.656-2.436-5.399zm1.015 5.323c-.154 2.897-1.433 7.219-3.799 12.85-2.478 5.898-5.298 11.23-7.938 15.013-3.006 4.306-4.72 5.076-5.26 4.847-.537-.227-1.19-1.986-.216-7.149.853-4.534 2.689-10.28 5.167-16.177 3.748-8.918 7.061-13.56 9.654-13.56.284 0 .56.055.826.167.43.181 1.74.73 1.566 4.01z"/>
        <path fill="#D7E057" d="M48.132 61.156c-2.64-1.109-8.966 7.953-14.13 20.241-5.164 12.29-4.491 16.683-1.852 17.792 2.641 1.11 6.249-1.485 11.412-13.774 5.165-12.288 7.21-23.15 4.57-24.259z"/>
        <path fill="#3A312A" fill-rule="nonzero" d="M48.408 60.499c-3.574-1.5-10.28 9.24-15.063 20.623-2.464 5.864-3.742 10.222-3.907 13.326-.15 2.84.669 4.656 2.437 5.398.474.2.95.3 1.433.3 3.29 0 6.801-4.673 10.912-14.454C49.002 74.308 51.978 62 48.408 60.499zM42.906 85.14c-4.158 9.895-7.781 14.528-10.48 13.392-.43-.18-1.74-.73-1.565-4.008.154-2.897 1.432-7.22 3.797-12.85C39.954 69.07 45.651 61.766 47.61 61.766c.09 0 .173.016.246.047 1.681.707.589 10.145-4.95 23.327z"/>
        <path fill="#D7E057" d="M85.32 60.447c-12.288-5.164-23.149-7.21-24.258-4.57-1.042 2.478 6.88 8.206 18.02 13.169l6.602 2.68c8.986 3.236 12.444 2.432 13.41.134 1.11-2.64-1.485-6.25-13.773-11.413z"/>
        <path fill="#3A312A" d="M97.713 66.575c-2.29-2.102-6.253-4.321-12.117-6.785-5.988-2.516-11.836-4.382-16.465-5.254-5.09-.958-8.026-.6-8.726 1.066-1.649 3.924 10.782 10.707 18.387 14.096a.712.712 0 1 0 .58-1.301c-12.365-5.51-18.287-10.736-17.654-12.243.227-.539 1.986-1.19 7.149-.218 4.533.855 10.28 2.69 16.177 5.168 5.63 2.367 9.569 4.561 11.706 6.52 2.419 2.22 1.869 3.53 1.688 3.96-1.2 2.857-7.467 1.29-12.512-.527a.711.711 0 1 0-.483 1.34c4.033 1.452 7.21 2.179 9.566 2.179 2.49 0 4.06-.813 4.742-2.44.743-1.768.058-3.638-2.038-5.561z"/>
        <path fill="#D7E057" d="M22.613 34.096c-.518-.217-1.016-.42-1.506-.617l-6.684-2.328c-6.193-1.721-8.787-.846-9.603 1.094-1.109 2.64 1.486 6.249 13.774 11.412 12.29 5.163 23.15 7.21 24.26 4.569 1.11-2.64-7.954-8.966-20.241-14.13z"/>
        <path fill="#3A312A" d="M22.887 33.44c-.52-.22-1.02-.424-1.514-.623a.711.711 0 1 0-.53 1.322c.485.196.98.398 1.493.613 13.182 5.54 20.568 11.517 19.861 13.198-.707 1.68-10.144.59-23.327-4.95-9.894-4.159-14.526-7.782-13.392-10.48.778-1.85 3.723-2.08 8.754-.682a.712.712 0 1 0 .381-1.373c-5.915-1.644-9.333-1.152-10.448 1.504-1.56 3.71 2.939 7.631 14.154 12.345 7.892 3.316 16.227 5.762 21.098 5.762 2.157 0 3.633-.48 4.094-1.574 1.5-3.569-9.24-10.278-20.624-15.062z"/>
        <path fill="#D7E057" d="M99.294 32.727c-1.083-2.652-5.469-3.368-17.81 1.67-12.34 5.038-21.467 11.27-20.383 13.923 1.081 2.65 11.963.716 24.304-4.322 12.34-5.038 14.972-8.62 13.889-11.27z"/>
        <path fill="#3A312A" fill-rule="nonzero" d="M99.953 32.457c-1.52-3.724-7.475-3.317-18.737 1.28-11.432 4.668-22.24 11.267-20.776 14.852.445 1.086 1.837 1.631 4.156 1.631 1.25 0 2.772-.158 4.56-.477 4.638-.824 10.505-2.63 16.518-5.085 5.888-2.404 9.875-4.583 12.185-6.66 2.115-1.901 2.82-3.765 2.094-5.54zm-3.047 4.481c-2.156 1.94-6.117 4.093-11.77 6.4-5.924 2.419-11.687 4.196-16.23 5.004-5.171.918-6.926.25-7.147-.291-.689-1.688 6.757-7.59 19.995-12.994 5.986-2.444 10.483-3.674 13.356-3.674 1.896 0 3.085.537 3.524 1.614.178.431.715 1.747-1.728 3.941z"/>
        <path fill="#D7E057" d="M42.815 55.784c-1.083-2.65-11.964-.716-24.305 4.322-12.34 5.038-14.972 8.62-13.89 11.272 1.083 2.65 5.47 3.367 17.81-1.67 12.34-5.04 21.467-11.272 20.385-13.924z"/>
        <path fill="#3A312A" fill-rule="nonzero" d="M43.474 55.515c-.682-1.673-3.614-2.062-8.715-1.154-4.638.824-10.505 2.63-16.518 5.085-5.887 2.404-9.874 4.583-12.185 6.66-2.114 1.901-2.819 3.765-2.095 5.54.68 1.663 2.307 2.503 4.845 2.503.171 0 .348-.004.528-.011 3.106-.134 7.477-1.367 13.366-3.771 6.013-2.456 11.468-5.27 15.358-7.927 4.277-2.923 6.099-5.252 5.416-6.925zm-6.22 5.747c-3.81 2.603-9.17 5.368-15.093 7.786-5.654 2.308-9.99 3.542-12.888 3.666-3.276.138-3.816-1.174-3.993-1.606-.176-.432-.713-1.748 1.728-3.942 2.158-1.939 6.117-4.092 11.772-6.401 5.923-2.418 11.687-4.194 16.23-5.002 1.857-.33 3.272-.455 4.335-.455 1.898 0 2.67.4 2.81.746.221.54-.563 2.246-4.9 5.208z"/>
        <path fill="#D7E057" d="M69.613 81.58C64.574 69.238 58.34 60.111 55.69 61.193c-2.651 1.083-.716 11.964 4.322 24.305 5.037 12.34 8.62 14.973 11.27 13.89 2.652-1.083 3.369-5.47-1.67-17.81z"/>
        <path fill="#3A312A" fill-rule="nonzero" d="M70.272 81.31c-2.455-6.014-5.27-11.467-7.927-15.358-2.921-4.277-5.25-6.098-6.924-5.417-1.674.684-2.062 3.615-1.155 8.715.824 4.638 2.63 10.505 5.085 16.519 2.405 5.888 4.583 9.874 6.66 12.185 1.42 1.577 2.817 2.37 4.173 2.37.46 0 .917-.092 1.368-.276 3.725-1.52 3.319-7.475-1.28-18.739zm.741 17.42c-.432.176-1.747.714-3.942-1.729-1.938-2.156-4.092-6.117-6.4-11.771-2.419-5.924-4.195-11.687-5.003-16.23-.919-5.171-.25-6.925.29-7.146.541-.217 2.247.564 5.21 4.9 2.602 3.81 5.366 9.171 7.785 15.094 4.057 9.939 4.77 15.775 2.06 16.882z"/>
        <path fill="#D7E057" d="M43.904 18.605c-5.038-12.34-8.62-14.972-11.271-13.89-2.651 1.083-3.368 5.47 1.67 17.81 5.037 12.34 11.271 21.467 13.922 20.384 2.652-1.082.717-11.964-4.321-24.304z"/>
        <path fill="#3A312A" fill-rule="nonzero" d="M44.563 18.336c-2.404-5.889-4.583-9.874-6.66-12.186-1.9-2.113-3.764-2.82-5.54-2.094-1.775.724-2.613 2.532-2.49 5.372.133 3.105 1.367 7.477 3.77 13.367 2.455 6.013 5.27 11.466 7.927 15.357 2.523 3.695 4.604 5.557 6.202 5.557.254 0 .494-.046.722-.14 3.586-1.464.736-13.802-3.93-25.233zm3.393 23.914c-.543.217-2.246-.564-5.209-4.901-2.602-3.81-5.367-9.17-7.785-15.093-2.309-5.654-3.542-9.99-3.667-12.888-.14-3.28 1.175-3.817 1.607-3.993.156-.064.428-.174.816-.174.682 0 1.725.345 3.126 1.902 1.938 2.156 4.092 6.117 6.4 11.772 5.404 13.236 6.401 22.685 4.712 23.375z"/>
        <path fill="#87796F" d="M68.179 50.573c-.798-9.112-8.831-15.852-17.942-15.055-9.112.798-15.851 8.831-15.055 17.943.798 9.11 8.831 15.851 17.943 15.053 9.111-.797 15.851-8.83 15.054-17.941z"/>
        <path fill="#3A312A" fill-rule="nonzero" d="M51.682 34.74c-9.526 0-17.274 7.75-17.274 17.274 0 9.525 7.748 17.273 17.274 17.273 9.524 0 17.273-7.748 17.273-17.273 0-9.525-7.75-17.273-17.273-17.273zm0 33.122c-8.74 0-15.85-7.11-15.85-15.848 0-8.74 7.11-15.848 15.85-15.848 8.738 0 15.848 7.109 15.848 15.848s-7.11 15.848-15.848 15.848z"/>
        <path fill="#6B5B51" d="M51.683 36.164c-1.04 0-2.057.1-3.044.294 7.289 1.424 12.802 7.86 12.802 15.558 0 7.697-5.513 14.128-12.802 15.552.987.195 2.003.294 3.044.294 8.737 0 15.846-7.11 15.846-15.846 0-8.743-7.11-15.852-15.846-15.852z"/>
    </g>
</svg>
