<svg xmlns="http://www.w3.org/2000/svg" width="97" height="96" viewBox="0 0 97 96">
    <g fill="none" fill-rule="evenodd">
        <path fill="#D7E057" d="M92.203 47.82c0-2.748-1.945-5.206-4.68-5.637-3.498-.552-6.517 2.114-6.517 5.48v1.42c0 3.156-3.283 5.483-6.293 4.33-2.008-.77-3.788-2.885-3.788-5.066V26.559c0-3.067-2.506-5.554-5.598-5.553-3.092 0-5.599 2.486-5.599 5.553v1.42c0 4.126-5.03 6.192-7.97 3.275a4.61 4.61 0 0 1-1.368-3.275V6.19c0-3.066-2.507-5.553-5.599-5.553-3.091 0-5.598 2.487-5.598 5.553v3.86c0 7.706-19.627 1.415-25.122-4.035-2.185-2.168-5.601-2.023-7.593.323-2.364 1.975-2.51 5.365-.324 7.533 5.493 5.449 11.836 24.917 4.066 24.917H6.487c-2.77 0-5.248 1.929-5.683 4.641-.556 3.47 2.132 6.464 5.524 6.464h21.968a4.69 4.69 0 0 1 3.302 1.358c2.941 2.917.858 7.906-3.302 7.906h-1.432c-3.393 0-6.081 2.994-5.525 6.464.435 2.713 2.914 4.64 5.683 4.64h21.81c2.625 0 4.865 2.193 5.261 4.705.426 2.696-1.73 5.295-4.519 5.295h-1.275c-2.77 0-5.248 1.929-5.683 4.642-.556 3.47 2.133 6.464 5.526 6.464H82.35c1.239 0 5.376-.12 7.368-2.467 2.364-1.974 2.485-6.078 2.485-7.306V47.819z"/>
        <path fill="#3A312A" d="M92.845 47.82c0-3.104-2.245-5.798-5.22-6.266a6.312 6.312 0 0 0-5.07 1.4 6.162 6.162 0 0 0-2.19 4.708v1.422c0 1.297-.666 2.524-1.78 3.282-1.103.751-2.43.916-3.64.453-1.66-.636-3.377-2.482-3.377-4.471v-21.79c0-3.413-2.8-6.19-6.24-6.19-3.442 0-6.241 2.777-6.241 6.19v1.421c0 1.646-.953 3.06-2.486 3.69-1.534.63-3.215.298-4.388-.866a3.947 3.947 0 0 1-1.18-2.824V6.19c0-3.413-2.799-6.19-6.24-6.19-3.441 0-6.24 2.777-6.24 6.19v3.86c0 1.198-.56 2.009-1.707 2.481-4.774 1.961-17.948-2.63-22.319-6.967-1.186-1.176-2.734-1.786-4.35-1.717-1.604.068-3.076.792-4.154 2.039-1.256 1.068-1.986 2.528-2.054 4.118-.07 1.608.545 3.14 1.731 4.317 4.37 4.335 8.999 17.402 7.022 22.136-.476 1.14-1.294 1.693-2.502 1.693H6.487c-3.129 0-5.844 2.226-6.317 5.18a6.186 6.186 0 0 0 1.41 5.027 6.255 6.255 0 0 0 4.75 2.173h7.587a.64.64 0 0 0 .643-.638.64.64 0 0 0-.643-.637H6.33a4.97 4.97 0 0 1-3.771-1.725c-.957-1.113-1.355-2.533-1.12-4.001.375-2.34 2.546-4.104 5.049-4.104h3.733c1.736 0 3.012-.858 3.69-2.48 2.384-5.71-2.962-19.22-7.302-23.525-.929-.92-1.41-2.115-1.357-3.361.055-1.247.637-2.395 1.64-3.234a.619.619 0 0 0 .078-.077c.847-.996 2.005-1.574 3.261-1.627 1.252-.054 2.46.424 3.387 1.344 4.341 4.306 17.962 9.609 23.72 7.243 1.634-.672 2.5-1.937 2.5-3.658V6.19c0-2.71 2.222-4.916 4.955-4.916s4.956 2.206 4.956 4.916v21.789a5.21 5.21 0 0 0 1.556 3.725c1.547 1.536 3.765 1.973 5.788 1.143 2.023-.832 3.279-2.697 3.279-4.868v-1.42c0-2.71 2.223-4.916 4.956-4.916 2.732 0 4.956 2.205 4.956 4.916v21.789c0 2.31 1.805 4.743 4.198 5.66 1.612.617 3.372.401 4.83-.59 1.463-.996 2.337-2.616 2.337-4.334v-1.422c0-1.44.634-2.804 1.74-3.74 1.121-.95 2.555-1.344 4.034-1.11 2.359.371 4.138 2.524 4.138 5.007v33.774c0 1.484-.22 5.118-2.257 6.82a.756.756 0 0 0-.078.076c-1.716 2.021-5.38 2.24-6.876 2.24H48.14a4.97 4.97 0 0 1-3.771-1.726c-.957-1.113-1.355-2.533-1.12-4 .376-2.34 2.546-4.105 5.049-4.105h1.275a5.189 5.189 0 0 0 3.922-1.824c1.018-1.18 1.467-2.713 1.232-4.208-.464-2.939-3.054-5.241-5.897-5.241H27.022c-2.503 0-4.673-1.765-5.048-4.105-.236-1.467.162-2.888 1.12-4a4.966 4.966 0 0 1 3.77-1.726h1.434c2.188 0 4.069-1.247 4.907-3.253.837-2.006.396-4.206-1.152-5.74a5.3 5.3 0 0 0-3.756-1.544h-7.844a.64.64 0 0 0-.643.637.64.64 0 0 0 .643.637h7.843a4.02 4.02 0 0 1 2.848 1.17c1.173 1.164 1.508 2.832.873 4.353-.636 1.52-2.062 2.466-3.721 2.466h-1.432-.001a6.257 6.257 0 0 0-4.748 2.173 6.187 6.187 0 0 0-1.41 5.028c.473 2.952 3.189 5.178 6.316 5.178h21.81c2.19 0 4.264 1.868 4.627 4.166.178 1.125-.164 2.285-.938 3.181-.755.876-1.83 1.378-2.946 1.378h-1.276c-3.127 0-5.843 2.226-6.316 5.178a6.188 6.188 0 0 0 1.41 5.029 6.258 6.258 0 0 0 4.75 2.173H82.35c2.068 0 5.825-.346 7.824-2.652 2.323-1.981 2.671-5.707 2.671-7.759V47.82z"/>
        <path fill="#3A312A" d="M64.444 62.931L7.004 5.96a.646.646 0 0 0-.908 0 .633.633 0 0 0 0 .9l57.44 56.973a.644.644 0 0 0 .908 0 .635.635 0 0 0 0-.9zM96.664 94.89c-4.402-4.579-9.031-9.062-13.508-13.399-4.451-4.31-9.053-8.768-13.39-13.28a.646.646 0 0 0-.908-.022.634.634 0 0 0-.023.9c4.353 4.53 8.965 8.996 13.424 13.314 4.468 4.328 9.09 8.804 13.475 13.366a.644.644 0 0 0 .908.021.634.634 0 0 0 .022-.9z"/>
    </g>
</svg>
