<svg xmlns="http://www.w3.org/2000/svg" width="51" height="56" viewBox="0 0 51 56">
    <path fill="#575757" fill-rule="nonzero" d="M49.784 26.777h-9.045v-1.17c0-4.004-3.24-7.262-7.22-7.262-3.981 0-7.22 3.258-7.22 7.261v1.171H1.215C.544 26.777 0 27.324 0 28s.544 1.223 1.216 1.223h25.082v1.17c0 4.004 3.24 7.262 7.22 7.262 3.981 0 7.221-3.258 7.221-7.262v-1.17h9.045c.672 0 1.216-.547 1.216-1.223s-.544-1.223-1.216-1.223zm-11.477 3.616c0 2.657-2.147 4.816-4.788 4.816-2.642 0-4.789-2.16-4.789-4.816v-4.789c0-2.656 2.147-4.815 4.789-4.815 2.64 0 4.788 2.159 4.788 4.815v4.79zM1.217 10.878h9.044v1.17c0 4.004 3.24 7.262 7.22 7.262 3.981 0 7.22-3.258 7.22-7.261v-1.171h25.083c.672 0 1.216-.547 1.216-1.223s-.544-1.223-1.216-1.223H24.702v-1.17c0-4.004-3.24-7.262-7.22-7.262C13.5 0 10.26 3.256 10.26 7.262v1.17H1.216C.544 8.432 0 8.979 0 9.655s.544 1.223 1.216 1.223zm11.476-3.616c0-2.657 2.147-4.816 4.788-4.816 2.642 0 4.789 2.16 4.789 4.816v4.789c0 2.656-2.147 4.815-4.789 4.815-2.64 0-4.788-2.159-4.788-4.815V7.26zm37.09 37.86H24.703v-1.17c0-4.004-3.24-7.262-7.22-7.262-3.981 0-7.221 3.258-7.221 7.261v1.171H1.216c-.672 0-1.216.547-1.216 1.223s.544 1.223 1.216 1.223h9.045v1.17c0 4.004 3.24 7.262 7.22 7.262 3.981 0 7.22-3.258 7.22-7.262v-1.17h25.083c.672 0 1.216-.547 1.216-1.223s-.544-1.223-1.216-1.223zM22.27 48.738c0 2.657-2.147 4.816-4.789 4.816-2.64 0-4.788-2.16-4.788-4.816V43.95c0-2.656 2.147-4.815 4.788-4.815 2.642 0 4.789 2.159 4.789 4.815v4.79z"/>
</svg>
