<svg xmlns="http://www.w3.org/2000/svg" width="107" height="107" viewBox="0 0 107 107">
    <g fill="none" fill-rule="evenodd">
        <path fill="#D7E057" d="M53.482.753c-1.13 0-4.154 2.569-7.82 6.711l-4.636 5.677c-7.578 9.994-15.675 24.272-15.675 36.01 0 20.375 12.595 30.8 28.131 30.8 15.537 0 28.132-10.425 28.132-30.8C81.614 28.777 57.562.753 53.482.753z"/>
        <path fill="#3A312A" d="M69.668 16.912C63.317 7.61 56.055.042 53.482.042c-1.99 0-6.506 4.863-8.355 6.953a.709.709 0 0 0 .064 1.003.716.716 0 0 0 1.007-.064c4.17-4.714 6.682-6.471 7.284-6.471 1.557 0 8.337 6.48 15.006 16.247 4.636 6.79 12.413 19.902 12.413 31.441 0 18.278-10.762 30.09-27.418 30.09S26.065 67.43 26.065 49.15c0-13.627 10.861-29.423 15.531-35.583a.708.708 0 0 0-.14-.994.717.717 0 0 0-1 .139C35.7 18.986 24.639 35.093 24.639 49.15c0 19.142 11.322 31.51 28.844 31.51 17.523 0 28.845-12.368 28.845-31.51 0-11.92-7.931-25.315-12.659-32.239z"/>
        <path fill="#3A312A" d="M53.482 0a.712.712 0 0 0-.713.71v86.771c0 .392.32.71.713.71a.712.712 0 0 0 .714-.71V.711c0-.393-.32-.711-.714-.711z"/>
        <path fill="#3A312A" d="M64.04 21.44a.715.715 0 0 0-1.01 0l-9.406 9.364-9.69-9.647a.715.715 0 0 0-1.009 0 .708.708 0 0 0 0 1.005L53.12 32.31a.713.713 0 0 0 1.009 0l9.911-9.866a.709.709 0 0 0 0-1.005z"/>
        <path fill="#D7E057" d="M56.201 58.308c-6.919-19.383-39.319-37.95-43.2-36.577C9.62 22.927-2.91 54.475 1.79 74.243l2.471 6.885c7.515 16.24 21.892 20.813 35.634 15.952C54.676 91.85 63.12 77.693 56.2 58.308z"/>
        <g fill="#3A312A">
            <path d="M56.873 58.072c-4.047-11.339-16.14-21.413-22.99-26.408-9.2-6.712-18.675-11.47-21.121-10.602-2.402.85-6.585 10.923-9.083 19.769-2.142 7.585-5.326 22.034-2.583 33.576a.714.714 0 0 0 1.389-.328c-2.67-11.231.463-25.412 2.568-32.865 3.231-11.442 7.102-18.431 8.186-18.814 1.485-.522 10.137 3.36 19.801 10.409 6.716 4.899 18.569 14.757 22.489 25.737 6.208 17.394-.023 32.257-15.873 37.865-14.596 5.161-27.91-.805-34.746-15.58a.715.715 0 0 0-.947-.347.71.71 0 0 0-.349.942c3.64 7.866 9.124 13.484 15.858 16.248 3.193 1.31 6.594 1.965 10.106 1.965 3.444 0 6.994-.63 10.556-1.89 16.667-5.897 23.237-21.47 16.739-39.677z"/>
            <path d="M43.835 105.995c-2.074-5.782-4.096-11.61-6.052-17.248-3.678-10.604-7.152-20.622-11.014-30.564a.717.717 0 0 0-.923-.407.71.71 0 0 0-.408.919c3.853 9.918 7.323 19.923 10.997 30.515 1.956 5.641 3.979 11.473 6.056 17.262a.714.714 0 0 0 1.344-.477zM23.95 50.287L13.659 21.453a.712.712 0 0 0-.91-.432.71.71 0 0 0-.434.908l10.293 28.833a.714.714 0 0 0 .91.43.709.709 0 0 0 .434-.905z"/>
            <path d="M27.722 31.298a.715.715 0 0 0-.95.335L21 43.717l-12.501-5.92a.716.716 0 0 0-.95.336.709.709 0 0 0 .338.946l13.144 6.224a.71.71 0 0 0 .545.028.71.71 0 0 0 .406-.363l6.08-12.724a.71.71 0 0 0-.34-.946zM38.566 49.471a.716.716 0 0 0-.952.336l-8.23 17.228-17.816-8.437a.716.716 0 0 0-.952.337.71.71 0 0 0 .338.945l18.462 8.742a.71.71 0 0 0 .95-.336l8.537-17.868a.709.709 0 0 0-.337-.947zM50.878 66.775a.716.716 0 0 0-.951.337L38.234 91.586 12.93 79.605a.71.71 0 1 0-.613 1.283l25.949 12.286a.711.711 0 0 0 .95-.336l12-25.116a.71.71 0 0 0-.338-.947z"/>
        </g>
        <path fill="#D7E057" d="M93.964 21.73c-3.882-1.373-36.282 17.195-43.2 36.578-6.92 19.385 1.523 33.542 16.305 38.772 14.781 5.229 30.305-.45 37.223-19.834 6.92-19.384-6.77-54.256-10.328-55.515z"/>
        <path fill="#3A312A" fill-rule="nonzero" d="M103.746 42.51c-2.873-10.812-7.244-20.634-9.543-21.448-2.445-.862-11.92 3.89-21.122 10.602-6.848 4.995-18.942 15.069-22.989 26.408-3.33 9.328-3.317 18.053.04 25.23 3.13 6.694 8.905 11.69 16.698 14.447 3.653 1.292 7.221 1.919 10.638 1.919 12.18 0 22.422-7.966 27.496-22.184 4.028-11.284.966-26.756-1.218-34.974zm-.126 34.499c-6.208 17.393-20.462 25.008-36.312 19.402-7.425-2.627-12.918-7.368-15.882-13.708-3.195-6.833-3.191-15.186.01-24.156 3.919-10.98 15.772-20.84 22.489-25.737 9.664-7.05 18.317-10.934 19.8-10.409 1.246.441 5.474 8.548 8.642 20.473 2.142 8.059 5.152 23.21 1.253 34.135z"/>
        <path fill="#3A312A" d="M73.099 80.257a.715.715 0 0 0-.925.4c-2.79 7.056-5.279 14.334-7.914 22.038l-1.134 3.308a.71.71 0 0 0 .676.94.715.715 0 0 0 .675-.48l1.134-3.312c2.63-7.687 5.114-14.948 7.89-21.974a.707.707 0 0 0-.402-.92zM94.195 21.014a.714.714 0 0 0-.897.46c-1.882 5.861-3.97 11.326-6.181 17.113a930.312 930.312 0 0 0-1.973 5.192c-3.18 9.494-6.52 19.031-10.213 29.156a.71.71 0 0 0 .67.952.713.713 0 0 0 .67-.468 1147.107 1147.107 0 0 0 10.216-29.166c.656-1.741 1.312-3.457 1.963-5.16 2.218-5.804 4.313-11.288 6.207-17.185a.71.71 0 0 0-.462-.894z"/>
        <path fill="#3A312A" d="M99.416 38.133a.715.715 0 0 0-.95-.336l-12.502 5.92-5.772-12.084a.716.716 0 0 0-.95-.335.708.708 0 0 0-.338.946l6.078 12.724a.714.714 0 0 0 .95.335l13.147-6.225a.707.707 0 0 0 .337-.945zM96.347 58.934a.714.714 0 0 0-.95-.336L77.58 67.034l-8.23-17.227a.716.716 0 0 0-.952-.337.71.71 0 0 0-.337.947l8.537 17.868a.712.712 0 0 0 .95.336L96.01 59.88a.708.708 0 0 0 .338-.946zM94.986 79.94a.715.715 0 0 0-.951-.335L68.73 91.586 57.037 67.112a.715.715 0 0 0-.95-.337.71.71 0 0 0-.338.947l12 25.116a.713.713 0 0 0 .95.336l25.949-12.287a.71.71 0 0 0 .338-.947z"/>
        <path fill="#B9BC39" d="M68.487 17.712C62.565 9.033 56.555 2.954 54.196 1.704v5.62c5.52 6.198 12.454 16.007 16.62 26.045.8-.625 1.56-1.188 2.264-1.704a112.55 112.55 0 0 1 2.52-1.786c-2.349-4.848-5.045-9.137-7.113-12.167zM33.038 32.81C24.45 26.543 16.66 22.778 13.993 22.39l.927 2.603c3.41 1.828 7.433 4.332 11.523 7.325l.327-.682a.713.713 0 0 1 .952-.336.703.703 0 0 1 .338.942l-.453.942C36.652 39.978 45.764 49.05 49.07 58.31c.166.47.323.933.475 1.397.166-.544.352-1.089.547-1.633.66-1.847 1.535-3.66 2.563-5.427-5.216-8.526-14.128-15.836-19.617-19.836zM102.365 42.876c-2.783-10.478-6.382-18.006-8.061-19.98l-2.573 7.206c1.104 2.675 2.236 5.852 3.272 9.331l3.462-1.637a.717.717 0 0 1 .951.335c.171.355.02.782-.337.947l-3.672 1.739c3.315 11.642 5.402 26.195 1.75 36.431-4.313 12.084-11.97 18.839-20.705 20.95 12.012.427 22.184-7.224 27.168-21.191 3.9-10.923.89-26.073-1.255-34.131z"/>
    </g>
</svg>
