<svg xmlns="http://www.w3.org/2000/svg" width="120" height="110" viewBox="0 0 120 110">
    <g fill="none" fill-rule="evenodd">
        <path fill="#87796F" d="M5.921 98.374h108.122v11.57H5.92zM50.164 64.804H69.8v33.57H50.164z"/>
        <path fill="#3A312A" d="M69.8 64.07H50.164a.73.73 0 0 0-.727.734V78.43a.73.73 0 0 0 .727.734.73.73 0 0 0 .727-.734V65.537h18.182V97.64H50.89V85.887a.73.73 0 0 0-.727-.733.73.73 0 0 0-.727.733v12.487a.73.73 0 0 0 .727.733H69.8a.73.73 0 0 0 .727-.733v-33.57a.731.731 0 0 0-.727-.734z"/>
        <path fill="#3A312A" d="M114.043 97.64H5.92a.73.73 0 0 0-.727.734.73.73 0 0 0 .727.733h108.122a.73.73 0 0 0 .727-.733.731.731 0 0 0-.727-.734z"/>
        <path fill="#D7E057" d="M72.393 42.804H47.569c-9.375 0-16.975 7.663-16.975 17.116 0 2.697 2.167 4.884 4.842 4.884h49.09c2.675 0 4.842-2.187 4.842-4.884.001-9.453-7.6-17.116-16.975-17.116z"/>
        <path fill="#3A312A" d="M72.394 42.07H63.39a.73.73 0 0 0-.727.734.73.73 0 0 0 .727.733h9.003c8.96 0 16.248 7.35 16.248 16.383 0 2.288-1.846 4.15-4.115 4.15h-49.09c-2.27 0-4.116-1.862-4.116-4.15 0-9.034 7.29-16.383 16.25-16.383h8.678a.73.73 0 0 0 .727-.733.73.73 0 0 0-.727-.734h-8.68c-9.761 0-17.703 8.008-17.703 17.85 0 3.097 2.499 5.617 5.57 5.617h49.09c3.072 0 5.57-2.52 5.57-5.617 0-9.842-7.942-17.85-17.702-17.85z"/>
        <path fill="#8AC6DD" d="M59.984.837c-2.827 0-5.118 2.31-5.118 5.16s2.291 5.16 5.118 5.16c2.826 0 5.116-2.31 5.116-5.16S62.81.837 59.984.837z"/>
        <path fill="#3A312A" fill-rule="nonzero" d="M59.984.104c-3.223 0-5.845 2.643-5.845 5.893 0 3.249 2.622 5.893 5.845 5.893 3.222 0 5.844-2.643 5.844-5.893S63.205.104 59.984.104zm0 10.32c-2.422 0-4.39-1.986-4.39-4.427s1.97-4.427 4.39-4.427 4.39 1.986 4.39 4.427-1.97 4.426-4.39 4.426z"/>
        <path fill="#8AC6DD" d="M59.984 30.816c-1.742 0-3.152 1.423-3.152 3.178s1.41 3.178 3.152 3.178c1.74 0 3.151-1.423 3.151-3.178 0-1.754-1.41-3.178-3.151-3.178z"/>
        <path fill="#3A312A" fill-rule="nonzero" d="M59.984 30.083c-2.14 0-3.879 1.755-3.879 3.911 0 2.157 1.74 3.911 3.879 3.911 2.138 0 3.879-1.754 3.879-3.911 0-2.156-1.74-3.911-3.88-3.911zm0 6.356c-1.337 0-2.424-1.097-2.424-2.444a2.437 2.437 0 0 1 2.424-2.444c1.336 0 2.424 1.096 2.424 2.444 0 1.347-1.088 2.444-2.424 2.444z"/>
        <path fill="#8AC6DD" d="M59.984 17.137c-2.138 0-3.87 1.746-3.87 3.901 0 2.156 1.733 3.903 3.87 3.903s3.87-1.747 3.87-3.903c0-2.155-1.734-3.901-3.87-3.901z"/>
        <path fill="#3A312A" fill-rule="nonzero" d="M59.984 16.404c-2.535 0-4.598 2.08-4.598 4.634 0 2.558 2.063 4.636 4.598 4.636 2.535 0 4.596-2.078 4.596-4.636 0-2.555-2.062-4.634-4.596-4.634zm0 7.805c-1.733 0-3.143-1.422-3.143-3.17 0-1.747 1.41-3.169 3.143-3.169 1.732 0 3.142 1.422 3.142 3.17 0 1.747-1.41 3.169-3.142 3.169z"/>
        <path fill="#8AC6DD" d="M92.821 5.161c-2.48-1.366-5.589-.447-6.945 2.053-1.355 2.5-.443 5.636 2.036 7.002 2.48 1.367 5.589.448 6.945-2.052 1.355-2.5.444-5.637-2.036-7.003z"/>
        <path fill="#3A312A" fill-rule="nonzero" d="M95.974 8.03a5.838 5.838 0 0 0-2.804-3.513 5.76 5.76 0 0 0-4.447-.484 5.817 5.817 0 0 0-3.485 2.829c-1.546 2.852-.502 6.44 2.325 7.998.888.488 1.847.72 2.793.72 2.07 0 4.079-1.11 5.14-3.066a5.89 5.89 0 0 0 .478-4.484zm-1.755 3.782c-1.161 2.141-3.835 2.931-5.958 1.76-2.124-1.17-2.908-3.865-1.747-6.007a4.371 4.371 0 0 1 2.617-2.124 4.335 4.335 0 0 1 3.34.364 4.392 4.392 0 0 1 2.109 2.638 4.432 4.432 0 0 1-.361 3.369z"/>
        <path fill="#8AC6DD" d="M78.562 31.467a3.14 3.14 0 0 0-4.278 1.265 3.191 3.191 0 0 0 1.254 4.313 3.138 3.138 0 0 0 4.277-1.264 3.192 3.192 0 0 0-1.253-4.314z"/>
        <path fill="#3A312A" fill-rule="nonzero" d="M80.773 33.156a3.87 3.87 0 0 0-7.127-.775c-1.026 1.892-.334 4.273 1.543 5.307.59.325 1.227.479 1.855.479a3.877 3.877 0 0 0 3.41-2.035c.497-.917.61-1.974.319-2.976zm-1.596 2.273a2.416 2.416 0 0 1-3.29.972 2.458 2.458 0 0 1-.965-3.317 2.426 2.426 0 0 1 2.133-1.273 2.426 2.426 0 0 1 2.322 1.756c.182.628.11 1.29-.2 1.862z"/>
        <path fill="#8AC6DD" d="M85.068 19.464a3.854 3.854 0 0 0-5.253 1.552c-1.024 1.891-.335 4.262 1.541 5.296a3.853 3.853 0 0 0 5.252-1.552c1.026-1.892.336-4.263-1.54-5.296z"/>
        <path fill="#3A312A" fill-rule="nonzero" d="M85.418 18.82c-2.227-1.226-5.024-.398-6.24 1.844a4.638 4.638 0 0 0-.378 3.527 4.6 4.6 0 0 0 4.405 3.332 4.595 4.595 0 0 0 4.041-2.412c1.215-2.243.395-5.065-1.828-6.292zm.552 5.588a3.133 3.133 0 0 1-5.774-.628 3.169 3.169 0 0 1 .259-2.411 3.142 3.142 0 0 1 2.763-1.65c.508 0 1.024.126 1.502.388 1.52.839 2.08 2.768 1.25 4.301z"/>
        <path fill="#8AC6DD" d="M118.368 22.706a5.091 5.091 0 0 0-7.101-1.407c-2.346 1.589-2.97 4.795-1.394 7.16a5.092 5.092 0 0 0 7.101 1.407c2.346-1.589 2.97-4.795 1.394-7.16z"/>
        <path fill="#3A312A" fill-rule="nonzero" d="M118.973 22.297c-1.797-2.698-5.436-3.418-8.112-1.606a5.857 5.857 0 0 0-2.476 3.756 5.898 5.898 0 0 0 .884 4.422 5.83 5.83 0 0 0 4.86 2.605c1.12 0 2.253-.324 3.25-1 2.675-1.811 3.39-5.48 1.594-8.177zm-2.404 6.96a4.373 4.373 0 0 1-6.092-1.206 4.423 4.423 0 0 1-.664-3.321 4.399 4.399 0 0 1 1.86-2.822 4.34 4.34 0 0 1 2.442-.75 4.38 4.38 0 0 1 3.65 1.956c1.35 2.027.813 4.782-1.196 6.143z"/>
        <path fill="#8AC6DD" d="M93.688 39.423a3.136 3.136 0 0 0-4.374-.866 3.195 3.195 0 0 0-.859 4.41 3.137 3.137 0 0 0 4.375.866 3.194 3.194 0 0 0 .858-4.41z"/>
        <path fill="#3A312A" fill-rule="nonzero" d="M94.292 39.014a3.863 3.863 0 0 0-5.383-1.066 3.889 3.889 0 0 0-1.644 2.493c-.2 1.026.01 2.068.586 2.935a3.855 3.855 0 0 0 3.23 1.732 3.82 3.82 0 0 0 2.154-.667 3.881 3.881 0 0 0 1.643-2.493 3.911 3.911 0 0 0-.586-2.934zm-1.869 4.21a2.395 2.395 0 0 1-1.819.37 2.446 2.446 0 0 1-1.912-2.87 2.431 2.431 0 0 1 2.375-1.974c.781 0 1.55.38 2.016 1.081a2.459 2.459 0 0 1-.66 3.393z"/>
        <path fill="#8AC6DD" d="M104.95 31.794a3.85 3.85 0 0 0-5.37-1.063 3.921 3.921 0 0 0-1.055 5.415 3.85 3.85 0 0 0 5.37 1.064 3.923 3.923 0 0 0 1.055-5.416z"/>
        <path fill="#3A312A" fill-rule="nonzero" d="M105.553 31.385a4.563 4.563 0 0 0-2.93-1.963 4.529 4.529 0 0 0-3.449.701c-2.105 1.426-2.666 4.311-1.253 6.433a4.56 4.56 0 0 0 2.93 1.963 4.54 4.54 0 0 0 3.45-.7 4.608 4.608 0 0 0 1.948-2.955 4.63 4.63 0 0 0-.696-3.479zm-.732 3.196a3.148 3.148 0 0 1-1.331 2.02 3.092 3.092 0 0 1-2.358.48 3.124 3.124 0 0 1-2.004-1.343 3.17 3.17 0 0 1-.475-2.378 3.148 3.148 0 0 1 1.332-2.02 3.105 3.105 0 0 1 2.358-.479 3.12 3.12 0 0 1 2.004 1.343 3.17 3.17 0 0 1 .474 2.377z"/>
        <path fill="#8AC6DD" d="M34.086 7.214c-1.355-2.5-4.464-3.42-6.944-2.053-2.48 1.367-3.392 4.502-2.036 7.003 1.355 2.5 4.464 3.42 6.944 2.052 2.48-1.366 3.392-4.501 2.036-7.002z"/>
        <path fill="#3A312A" fill-rule="nonzero" d="M34.724 6.863a5.814 5.814 0 0 0-3.483-2.83 5.77 5.77 0 0 0-4.447.484c-2.828 1.56-3.872 5.147-2.325 7.998a5.84 5.84 0 0 0 5.138 3.065 5.843 5.843 0 0 0 5.598-4.234 5.9 5.9 0 0 0-.48-4.483zm-.915 4.071a4.385 4.385 0 0 1-2.107 2.638c-2.123 1.171-4.797.381-5.958-1.76-1.16-2.142-.377-4.837 1.747-6.007a4.339 4.339 0 0 1 3.34-.364 4.37 4.37 0 0 1 2.618 2.124 4.437 4.437 0 0 1 .36 3.37z"/>
        <path fill="#8AC6DD" d="M45.679 32.732a3.14 3.14 0 0 0-4.277-1.265 3.192 3.192 0 0 0-1.254 4.314 3.138 3.138 0 0 0 4.277 1.264c1.527-.841 2.088-2.773 1.254-4.313z"/>
        <path fill="#3A312A" fill-rule="nonzero" d="M46.317 32.38a3.861 3.861 0 0 0-2.312-1.877 3.824 3.824 0 0 0-2.952.322c-.91.5-1.57 1.329-1.863 2.332a3.917 3.917 0 0 0 .32 2.976 3.877 3.877 0 0 0 3.41 2.035c.627 0 1.265-.154 1.854-.479 1.877-1.035 2.569-3.416 1.543-5.309zm-2.241 4.021a2.417 2.417 0 0 1-3.29-.972 2.445 2.445 0 0 1-.199-1.86 2.426 2.426 0 0 1 2.322-1.759 2.417 2.417 0 0 1 2.132 1.274 2.457 2.457 0 0 1-.965 3.317z"/>
        <path fill="#8AC6DD" d="M40.147 21.016a3.852 3.852 0 0 0-5.252-1.552c-1.876 1.033-2.565 3.404-1.54 5.296a3.852 3.852 0 0 0 5.252 1.552c1.876-1.034 2.565-3.405 1.54-5.296z"/>
        <path fill="#3A312A" fill-rule="nonzero" d="M40.785 20.665a4.574 4.574 0 0 0-2.74-2.226 4.535 4.535 0 0 0-3.499.38c-2.224 1.227-3.045 4.049-1.83 6.292a4.595 4.595 0 0 0 4.043 2.412 4.599 4.599 0 0 0 4.404-3.33 4.637 4.637 0 0 0-.378-3.528zm-1.018 3.115a3.143 3.143 0 0 1-1.508 1.889 3.132 3.132 0 0 1-4.266-1.26c-.831-1.535-.27-3.464 1.25-4.302a3.095 3.095 0 0 1 2.392-.26c.806.238 1.471.778 1.874 1.52.402.744.494 1.6.258 2.413z"/>
        <path fill="#8AC6DD" d="M8.696 21.3a5.091 5.091 0 0 0-7.101 1.406c-1.576 2.365-.952 5.571 1.394 7.16a5.09 5.09 0 0 0 7.101-1.406c1.576-2.367.952-5.571-1.394-7.16z"/>
        <path fill="#3A312A" fill-rule="nonzero" d="M11.578 24.447a5.854 5.854 0 0 0-2.476-3.756c-2.676-1.811-6.314-1.092-8.11 1.606-1.798 2.696-1.084 6.366 1.591 8.177.998.676 2.13 1 3.25 1a5.832 5.832 0 0 0 4.861-2.605 5.898 5.898 0 0 0 .884-4.422zm-2.091 3.604a4.372 4.372 0 0 1-6.092 1.206c-2.01-1.36-2.547-4.116-1.196-6.143a4.371 4.371 0 0 1 6.092-1.206 4.394 4.394 0 0 1 1.86 2.822 4.432 4.432 0 0 1-.664 3.321z"/>
        <path fill="#8AC6DD" d="M30.649 38.556a3.136 3.136 0 0 0-4.374.866 3.195 3.195 0 0 0 .859 4.41 3.136 3.136 0 0 0 4.374-.865 3.195 3.195 0 0 0-.86-4.41z"/>
        <path fill="#3A312A" fill-rule="nonzero" d="M32.698 40.441a3.887 3.887 0 0 0-1.643-2.493 3.827 3.827 0 0 0-2.91-.592 3.854 3.854 0 0 0-2.474 1.658c-1.192 1.79-.717 4.225 1.058 5.427a3.837 3.837 0 0 0 2.156.664c1.25 0 2.479-.608 3.227-1.73a3.914 3.914 0 0 0 .586-2.934zm-1.795 2.117a2.414 2.414 0 0 1-3.363.667 2.46 2.46 0 0 1-.661-3.393 2.41 2.41 0 0 1 3.364-.666 2.46 2.46 0 0 1 .66 3.392z"/>
        <path fill="#8AC6DD" d="M20.384 30.731a3.85 3.85 0 0 0-5.37 1.063c-1.192 1.79-.72 4.214 1.054 5.416a3.85 3.85 0 0 0 5.37-1.064 3.921 3.921 0 0 0-1.054-5.415z"/>
        <path fill="#3A312A" fill-rule="nonzero" d="M20.79 30.122a4.579 4.579 0 0 0-6.38 1.263c-1.414 2.122-.851 5.008 1.253 6.433a4.543 4.543 0 0 0 2.556.787c1.482 0 2.937-.72 3.824-2.05 1.412-2.122.85-5.007-1.253-6.433zm.045 5.616a3.132 3.132 0 0 1-4.362.864 3.19 3.19 0 0 1-.857-4.398 3.13 3.13 0 0 1 4.362-.864 3.148 3.148 0 0 1 1.332 2.02 3.17 3.17 0 0 1-.475 2.378z"/>
        <path fill="#6B5B51" d="M108.2 99.109h5.843v10.834H108.2zM63.23 65.537h5.843v32.105H63.23z"/>
        <path fill="#B9BC39" d="M72.394 43.537H66.55c8.96 0 16.247 7.348 16.247 16.382 0 2.288-1.846 4.151-4.116 4.151h5.843c2.269 0 4.116-1.863 4.116-4.15 0-9.035-7.288-16.383-16.247-16.383z"/>
    </g>
</svg>
