<svg xmlns="http://www.w3.org/2000/svg" width="110" height="99" viewBox="0 0 110 99">
    <g fill="none" fill-rule="evenodd">
        <path fill="#87796F" d="M.902 85.5h108.196V99H.902z"/>
        <path fill="#3A312A" d="M108.374 84.6H.724c-.4 0-.724.403-.724.9s.325.9.724.9h107.65c.4 0 .724-.403.724-.9s-.324-.9-.724-.9z"/>
        <path fill="#D7E057" d="M55.765 1.49c-.197-.787-1.328-.787-1.53 0-1.678 6.598-5.546 23.987-5.546 44.405 0 8.563.303 16.592.837 23.514v.009a309.929 309.929 0 0 0 .24 2.891c.477 5.239 1.087 9.732 1.795 13.191h6.883c.63-3.092 1.184-7.003 1.631-11.544.202-2.033.385-4.19.54-6.456-.006-.009 0-.014 0-.018.447-6.47.696-13.807.696-21.587 0-20.418-3.862-37.808-5.546-44.405z"/>
        <path fill="#3A312A" fill-rule="nonzero" d="M56.503 1.138C56.328.459 55.728.002 55.006 0h-.005c-.72 0-1.325.456-1.503 1.136-1.717 6.607-5.711 24.197-5.711 44.77 0 8.34.298 16.525.858 23.624a278.3 278.3 0 0 0 .252 3c.495 5.313 1.118 9.785 1.851 13.294.07.335.373.576.725.576h7.06a.736.736 0 0 0 .726-.576c.655-3.147 1.222-7.074 1.683-11.666.217-2.144.404-4.332.555-6.505l.001-.043c.475-6.727.715-14.03.715-21.703 0-20.63-3.994-38.182-5.71-44.77zm3.517 66.386a204.806 204.806 0 0 1-.551 6.493c-.43 4.268-.948 7.946-1.544 10.946H52.08c-.672-3.375-1.247-7.607-1.71-12.593l-.004-.023a340.841 340.841 0 0 1-.24-2.825l-.002-.055c-.561-7.11-.857-15.257-.857-23.56 0-20.413 3.962-37.863 5.666-44.417.008-.028.014-.052.068-.052h.001c.051 0 .057.02.065.05 1.704 6.538 5.666 23.952 5.666 44.419 0 7.646-.24 14.92-.713 21.617z"/>
        <path fill="#D7E057" d="M77.906 3.424c-.064-.815-1.188-1-1.522-.254a166.771 166.771 0 0 0-3.43 8.365l-2.595 7.253c-2.54 7.573-5.2 17.02-6.974 27.44-1.353 7.933-2.36 15.45-3.01 22.077 0 .004-.005.009 0 .018a192.297 192.297 0 0 0-.542 6.483c-.306 4.556-.398 8.49-.267 11.594h7.07c1.206-3.205 2.48-7.302 3.74-12.064.441-1.662.882-3.407 1.318-5.222 1.497-6.219 2.941-13.281 4.225-20.798 3.445-20.218 2.544-38.08 1.987-44.892z"/>
        <path fill="#3A312A" d="M78.797 3.18c-.055-.694-.57-1.239-1.28-1.357-.713-.119-1.388.232-1.682.872a164.703 164.703 0 0 0-3.505 8.347c-.143.37.05.782.432.92a.749.749 0 0 0 .952-.416c1.43-3.67 2.68-6.526 3.474-8.274.012-.026.023-.05.08-.04.05.008.052.03.055.061.56 6.683 1.483 24.39-2.014 44.43-1.285 7.355-2.728 14.292-4.287 20.62a227.127 227.127 0 0 1-1.336 5.174c-1.211 4.473-2.423 8.322-3.605 11.455h-5.963c-.093-2.943.008-6.557.295-10.76.143-2.085.328-4.244.55-6.418.002-.017.004-.034.004-.052.677-6.735 1.73-14.291 3.05-21.855 1.549-8.875 3.926-18.012 7.068-27.16a.709.709 0 0 0-.468-.903.743.743 0 0 0-.934.453c-3.166 9.217-5.562 18.427-7.124 27.372-1.325 7.606-2.386 15.207-3.066 21.98a190.071 190.071 0 0 0-.555 6.49c-.314 4.585-.406 8.486-.272 11.597a.727.727 0 0 0 .739.684h7.19a.736.736 0 0 0 .693-.465c1.256-3.258 2.544-7.314 3.828-12.055.457-1.686.91-3.438 1.345-5.205 1.567-6.36 3.016-13.327 4.308-20.713 3.522-20.2 2.591-38.049 2.028-44.782z"/>
        <path fill="#D7E057" d="M93.419 16.521c-3.168 5.044-11.036 18.487-16.563 35.494-1.87 5.76-3.489 11.294-4.796 16.321-.467 1.794-.897 3.53-1.284 5.186-1.095 4.685-1.864 8.772-2.251 11.978h6.768a99.726 99.726 0 0 0 1.733-3.54 158.642 158.642 0 0 0 2.001-4.466c2.634-6.16 5.475-13.758 8.176-22.068 5.522-17.007 7.06-32.54 7.467-38.49.052-.71-.874-1.019-1.251-.415z"/>
        <path fill="#3A312A" fill-rule="nonzero" d="M94.607 15.373a1.385 1.385 0 0 0-1.628.585c-3.19 5.037-11.222 18.611-16.871 35.84-1.875 5.729-3.515 11.263-4.876 16.449a213.27 213.27 0 0 0-1.306 5.23c-1.127 4.78-1.9 8.857-2.298 12.119a.715.715 0 0 0 .176.562c.136.154.331.242.537.242h6.865a.719.719 0 0 0 .636-.386 99.605 99.605 0 0 0 1.769-3.584 163.34 163.34 0 0 0 2.04-4.512c2.785-6.458 5.66-14.15 8.313-22.245 5.635-17.203 7.196-32.91 7.606-38.865a1.385 1.385 0 0 0-.963-1.435zM86.6 55.227c-2.64 8.053-5.5 15.703-8.267 22.12a159.953 159.953 0 0 1-2.022 4.473 101.225 101.225 0 0 1-1.543 3.144h-5.61c.415-3.069 1.142-6.817 2.166-11.16.393-1.663.83-3.412 1.298-5.194 1.352-5.158 2.985-10.665 4.85-16.366 5.56-16.956 13.447-30.338 16.658-35.418-.418 5.987-1.982 21.461-7.53 38.4z"/>
        <path fill="#D7E057" d="M107.202 35.275c-3.517 3.529-12.428 13.041-20.015 25.845-3.493 5.902-6.52 11.529-8.848 16.375-.762 1.58-1.45 3.072-2.057 4.467a89.58 89.58 0 0 0-1.446 3.538h7.132c.067-.085.135-.176.203-.262a.097.097 0 0 1 .02-.028c3.798-4.908 8.392-11.757 13-19.534 7.588-12.803 11.594-25.103 12.982-29.85.164-.566-.554-.975-.97-.551z"/>
        <path fill="#3A312A" fill-rule="nonzero" d="M108.435 34.377a1.32 1.32 0 0 0-1.602.217c-3.54 3.542-12.608 13.184-20.325 26.172-3.456 5.823-6.556 11.546-8.966 16.546a130.413 130.413 0 0 0-2.09 4.526 90.294 90.294 0 0 0-1.471 3.593.705.705 0 0 0 .085.66.74.74 0 0 0 .604.309h7.201a.743.743 0 0 0 .581-.277l.205-.264a.503.503 0 0 0 .036-.048c3.976-5.127 8.653-12.134 13.17-19.734 7.697-12.955 11.783-25.455 13.182-30.227v-.001a1.26 1.26 0 0 0-.61-1.472zM94.593 65.354c-4.492 7.558-9.137 14.52-13.081 19.601v.001l-.005.007h-5.77c.317-.796.676-1.655 1.07-2.563a126.317 126.317 0 0 1 2.065-4.474c2.393-4.965 5.473-10.65 8.907-16.439 7.345-12.358 15.924-21.654 19.685-25.465-1.526 5.089-5.545 17.003-12.871 29.332z"/>
        <path fill="#D7E057" d="M108.542 62.156c-2.72 1.656-9.705 6.215-16.416 13.063-3.516 3.594-6.605 7.062-8.945 9.984a.1.1 0 0 0-.02.029c-.076.093-.144.18-.21.268h6.998a153.138 153.138 0 0 0 6.323-6.108c6.706-6.852 11.155-13.964 12.773-16.73.193-.331-.177-.706-.503-.506z"/>
        <path fill="#3A312A" fill-rule="nonzero" d="M109.669 61.526a1.073 1.073 0 0 0-1.341-.162c-2.754 1.679-9.902 6.34-16.772 13.353-3.487 3.567-6.637 7.085-9.11 10.175l.001.001a.751.751 0 0 0-.324 1.092.73.73 0 0 0 .657.415h7.09c.18 0 .354-.067.487-.189 2.08-1.89 4.245-3.984 6.436-6.22 6.841-6.994 11.406-14.289 13.05-17.102v-.002c.261-.448.191-.995-.174-1.36zm-13.912 17.42a154.235 154.235 0 0 1-6.167 5.973h-5.276c2.321-2.827 5.163-5.972 8.279-9.158 5.873-5.997 11.953-10.243 15.219-12.334-2.048 3.333-6.204 9.54-12.055 15.52z"/>
        <path fill="#D7E057" d="M50.052 73.153c-.005-.02-.005-.039-.005-.057-.073-.925-.15-1.874-.238-2.847v-.01c-.635-7.08-1.71-15.292-3.193-24.012-3.444-20.218-10.219-36.8-13-43.057-.334-.747-1.454-.56-1.522.254-.557 6.813-1.458 24.674 1.987 44.892 1.284 7.517 2.728 14.579 4.225 20.798.437 1.815.878 3.56 1.319 5.222 1.26 4.762 2.533 8.86 3.74 12.064h7.069c.146-3.474.015-7.991-.382-13.247z"/>
        <path fill="#3A312A" fill-rule="nonzero" d="M50.943 72.47l-.004-.033-.002-.026a254.152 254.152 0 0 0-.242-2.846c-.661-7.209-1.787-15.48-3.254-23.916C43.922 25.482 36.985 8.892 34.164 2.693c-.292-.637-.966-.988-1.674-.87-.71.115-1.227.659-1.286 1.353-.564 6.735-1.495 24.583 2.028 44.786 1.293 7.391 2.741 14.36 4.307 20.712.437 1.775.89 3.526 1.345 5.206 1.284 4.74 2.571 8.796 3.828 12.055.107.28.384.465.693.465h7.19a.727.727 0 0 0 .738-.684c.15-3.503.019-7.959-.39-13.247zM49.88 84.971h-5.962c-1.182-3.134-2.393-6.983-3.604-11.455a222.173 222.173 0 0 1-1.337-5.174c-1.558-6.32-3-13.258-4.288-20.619-3.496-20.045-2.572-37.75-2.013-44.432.003-.03.005-.053.06-.062.051-.01.063.014.074.038 2.797 6.148 9.681 22.608 13.171 42.617 1.46 8.39 2.58 16.613 3.238 23.782l.002.033a253.518 253.518 0 0 1 .249 2.91c.371 4.805.512 9.058.41 12.362z"/>
        <path fill="#D7E057" d="M39.225 73.522a212.256 212.256 0 0 0-1.284-5.186 285.628 285.628 0 0 0-4.796-16.322c-5.523-17.007-13.396-30.45-16.56-35.492-.376-.604-1.307-.296-1.255.413.207 3.029.708 8.542 1.877 15.465l1.424 7.434a157.647 157.647 0 0 0 4.167 15.591c2.68 8.264 5.508 15.822 8.132 21.964.005.02.015.038.024.057.684 1.59 1.35 3.083 1.997 4.467a106.825 106.825 0 0 0 1.755 3.587h6.77c-.387-3.206-1.156-7.294-2.251-11.978z"/>
        <path fill="#3A312A" d="M42.372 85.595c-.398-3.26-1.17-7.338-2.297-12.119a216.554 216.554 0 0 0-1.306-5.23 284.865 284.865 0 0 0-4.876-16.448c-5.628-17.18-13.67-30.787-16.866-35.839a1.388 1.388 0 0 0-1.632-.585 1.385 1.385 0 0 0-.965 1.434c.19 2.752.69 8.44 1.913 15.617a.718.718 0 0 0 1.415-.24c-1.195-7.015-1.694-12.59-1.887-15.367 3.206 5.078 11.114 18.502 16.657 35.427a282.762 282.762 0 0 1 4.851 16.366c.468 1.776.904 3.524 1.299 5.195 1.023 4.342 1.751 8.091 2.165 11.16h-5.61a104.672 104.672 0 0 1-1.568-3.195 163.117 163.117 0 0 1-2.04-4.525c-2.763-6.412-5.608-14.025-8.224-22.018a156.937 156.937 0 0 1-4.206-15.602.719.719 0 0 0-1.403.304 158.125 158.125 0 0 0 4.244 15.743c2.625 8.02 5.48 15.664 8.257 22.108a162.667 162.667 0 0 0 2.072 4.602 108.46 108.46 0 0 0 1.793 3.63c.123.238.37.387.637.387h6.864a.717.717 0 0 0 .713-.805z"/>
        <path fill="#D7E057" d="M32.792 81.914a126.432 126.432 0 0 0-2.052-4.466.288.288 0 0 1-.024-.057c-2.329-4.823-5.331-10.416-8.805-16.271C14.324 48.316 5.413 38.804 1.896 35.274c-.417-.422-1.135-.014-.97.552 1.387 4.747 5.394 17.046 12.981 29.85 4.599 7.767 9.188 14.602 12.976 19.51.02.02.035.038.044.053.068.085.136.176.204.261h7.131a78.98 78.98 0 0 0-1.47-3.586z"/>
        <path fill="#3A312A" fill-rule="nonzero" d="M35.118 85.43a79.294 79.294 0 0 0-1.497-3.643c-.63-1.445-1.328-2.959-2.082-4.518a.728.728 0 0 0-.027-.062c-2.458-5.077-5.542-10.762-8.921-16.442-7.718-12.988-16.785-22.63-20.324-26.168a1.318 1.318 0 0 0-1.603-.22 1.26 1.26 0 0 0-.611 1.473c1.4 4.773 5.484 17.272 13.182 30.227 4.482 7.548 9.155 14.553 13.156 19.722a1.014 1.014 0 0 0 .05.06l.205.264c.14.175.354.277.58.277h7.204c.24 0 .466-.114.603-.308a.708.708 0 0 0 .085-.661zm-7.526-.468a.994.994 0 0 0-.051-.06c-3.962-5.121-8.59-12.063-13.035-19.548C7.18 53.024 3.161 41.109 1.635 36.02c3.758 3.807 12.338 13.104 19.684 25.466 3.351 5.632 6.41 11.267 8.847 16.297a.828.828 0 0 0 .042.095c.74 1.531 1.434 3.036 2.062 4.474.39.888.756 1.762 1.093 2.609h-5.771z"/>
        <path fill="#D7E057" d="M26.832 85.232a.309.309 0 0 0-.043-.054c-2.329-2.917-5.412-6.375-8.919-9.96-6.71-6.847-13.693-11.406-16.412-13.062-.326-.2-.696.175-.503.506 1.618 2.766 6.065 9.878 12.775 16.73a156.334 156.334 0 0 0 6.316 6.108h7.003c-.067-.088-.14-.175-.217-.268z"/>
        <path fill="#3A312A" fill-rule="nonzero" d="M27.797 85.205a7.981 7.981 0 0 0-.216-.269 1.32 1.32 0 0 0-.074-.09c-2.436-3.053-5.572-6.554-9.066-10.13-6.87-7.013-14.016-11.673-16.768-13.352a1.074 1.074 0 0 0-1.342.162 1.115 1.115 0 0 0-.174 1.363C1.802 65.702 6.367 73 13.21 79.991a159.246 159.246 0 0 0 6.428 6.22c.134.122.308.189.489.189h7.094a.73.73 0 0 0 .656-.415.752.752 0 0 0-.08-.78zm-7.39-.286a156.718 156.718 0 0 1-6.161-5.971C8.392 72.965 4.233 66.758 2.188 63.427c3.264 2.09 9.344 6.336 15.216 12.333 3.136 3.208 5.978 6.354 8.275 9.159h-5.272z"/>
        <path fill="#6B5B51" d="M109.09 86.41h-9.008V99h9.016V86.4c-.002.006-.006.01-.009.01z"/>
    </g>
</svg>
